<svg viewBox="0 0 330 200" xmlns="http://www.w3.org/2000/svg"><g><g><g><g><g><line x1="58" y1="178" x2="53" y2="178" style="visibility: inherit;" fill="rgb(0, 0, 0)" stroke="rgb(204, 204, 204)" stroke-width="1px"></line><line x1="58" y1="163.16666666666666" x2="53" y2="163.16666666666666" style="visibility: inherit;" fill="rgb(0, 0, 0)" stroke="rgb(204, 204, 204)" stroke-width="1px"></line><line x1="58" y1="148.33333333333334" x2="53" y2="148.33333333333334" style="visibility: inherit;" fill="rgb(0, 0, 0)" stroke="rgb(204, 204, 204)" stroke-width="1px"></line><line x1="58" y1="133.5" x2="53" y2="133.5" style="visibility: inherit;" fill="rgb(0, 0, 0)" stroke="rgb(204, 204, 204)" stroke-width="1px"></line><line x1="58" y1="118.66666666666669" x2="53" y2="118.66666666666669" style="visibility: inherit;" fill="rgb(0, 0, 0)" stroke="rgb(204, 204, 204)" stroke-width="1px"></line><line x1="58" y1="103.83333333333334" x2="53" y2="103.83333333333334" style="visibility: inherit;" fill="rgb(0, 0, 0)" stroke="rgb(204, 204, 204)" stroke-width="1px"></line><line x1="58" y1="89" x2="53" y2="89" style="visibility: inherit;" fill="rgb(0, 0, 0)" stroke="rgb(204, 204, 204)" stroke-width="1px"></line><line x1="58" y1="74.16666666666666" x2="53" y2="74.16666666666666" style="visibility: inherit;" fill="rgb(0, 0, 0)" stroke="rgb(204, 204, 204)" stroke-width="1px"></line><line x1="58" y1="59.333333333333385" x2="53" y2="59.333333333333385" style="visibility: inherit;" fill="rgb(0, 0, 0)" stroke="rgb(204, 204, 204)" stroke-width="1px"></line><line x1="58" y1="44.50000000000003" x2="53" y2="44.50000000000003" style="visibility: inherit;" fill="rgb(0, 0, 0)" stroke="rgb(204, 204, 204)" stroke-width="1px"></line><line x1="58" y1="29.666666666666686" x2="53" y2="29.666666666666686" style="visibility: inherit;" fill="rgb(0, 0, 0)" stroke="rgb(204, 204, 204)" stroke-width="1px"></line><line x1="58" y1="14.833333333333343" x2="53" y2="14.833333333333343" style="visibility: inherit;" fill="rgb(0, 0, 0)" stroke="rgb(204, 204, 204)" stroke-width="1px"></line><line x1="58" y1="0" x2="53" y2="0" style="visibility: inherit;" fill="rgb(0, 0, 0)" stroke="rgb(204, 204, 204)" stroke-width="1px"></line></g><g transform="translate(48, 0)"><text x="0" y="178" dx="0em" dy="0.3em" style="text-anchor: end; visibility: hidden; font-family: &quot;Helvetica Neue&quot;, sans-serif; font-size: 12px; font-weight: 200;" fill="rgb(50, 49, 63)" stroke="none" stroke-width="1px">0.75</text><text x="0" y="163.16666666666666" dx="0em" dy="0.3em" style="text-anchor: end; visibility: inherit; font-family: &quot;Helvetica Neue&quot;, sans-serif; font-size: 12px; font-weight: 200;" fill="rgb(50, 49, 63)" stroke="none" stroke-width="1px">0.8</text><text x="0" y="148.33333333333334" dx="0em" dy="0.3em" style="text-anchor: end; visibility: hidden; font-family: &quot;Helvetica Neue&quot;, sans-serif; font-size: 12px; font-weight: 200;" fill="rgb(50, 49, 63)" stroke="none" stroke-width="1px">0.85</text><text x="0" y="133.5" dx="0em" dy="0.3em" style="text-anchor: end; visibility: inherit; font-family: &quot;Helvetica Neue&quot;, sans-serif; font-size: 12px; font-weight: 200;" fill="rgb(50, 49, 63)" stroke="none" stroke-width="1px">0.9</text><text x="0" y="118.66666666666669" dx="0em" dy="0.3em" style="text-anchor: end; visibility: hidden; font-family: &quot;Helvetica Neue&quot;, sans-serif; font-size: 12px; font-weight: 200;" fill="rgb(50, 49, 63)" stroke="none" stroke-width="1px">0.95</text><text x="0" y="103.83333333333334" dx="0em" dy="0.3em" style="text-anchor: end; visibility: inherit; font-family: &quot;Helvetica Neue&quot;, sans-serif; font-size: 12px; font-weight: 200;" fill="rgb(50, 49, 63)" stroke="none" stroke-width="1px">1</text><text x="0" y="89" dx="0em" dy="0.3em" style="text-anchor: end; visibility: hidden; font-family: &quot;Helvetica Neue&quot;, sans-serif; font-size: 12px; font-weight: 200;" fill="rgb(50, 49, 63)" stroke="none" stroke-width="1px">1.05</text><text x="0" y="74.16666666666666" dx="0em" dy="0.3em" style="text-anchor: end; visibility: inherit; font-family: &quot;Helvetica Neue&quot;, sans-serif; font-size: 12px; font-weight: 200;" fill="rgb(50, 49, 63)" stroke="none" stroke-width="1px">1.1</text><text x="0" y="59.333333333333385" dx="0em" dy="0.3em" style="text-anchor: end; visibility: hidden; font-family: &quot;Helvetica Neue&quot;, sans-serif; font-size: 12px; font-weight: 200;" fill="rgb(50, 49, 63)" stroke="none" stroke-width="1px">1.15</text><text x="0" y="44.50000000000003" dx="0em" dy="0.3em" style="text-anchor: end; visibility: inherit; font-family: &quot;Helvetica Neue&quot;, sans-serif; font-size: 12px; font-weight: 200;" fill="rgb(50, 49, 63)" stroke="none" stroke-width="1px">1.2</text><text x="0" y="29.666666666666686" dx="0em" dy="0.3em" style="text-anchor: end; visibility: hidden; font-family: &quot;Helvetica Neue&quot;, sans-serif; font-size: 12px; font-weight: 200;" fill="rgb(50, 49, 63)" stroke="none" stroke-width="1px">1.25</text><text x="0" y="14.833333333333343" dx="0em" dy="0.3em" style="text-anchor: end; visibility: inherit; font-family: &quot;Helvetica Neue&quot;, sans-serif; font-size: 12px; font-weight: 200;" fill="rgb(50, 49, 63)" stroke="none" stroke-width="1px">1.3</text><text x="0" y="0" dx="0em" dy="0.3em" style="text-anchor: end; visibility: hidden; font-family: &quot;Helvetica Neue&quot;, sans-serif; font-size: 12px; font-weight: 200;" fill="rgb(50, 49, 63)" stroke="none" stroke-width="1px">1.35</text></g><line x1="58" y1="0" x2="58" y2="178" fill="rgb(0, 0, 0)" stroke="rgb(204, 204, 204)" stroke-width="1px"></line></g></g><g transform="translate(58, 0)" clip-path="url(#clip_0)"><clipPath id="clip_0"><rect width="271" height="177"></rect></clipPath><g><g><g><line x1="0" y1="0" x2="0" y2="178" fill="rgb(0, 0, 0)" stroke="rgb(60, 60, 60)" stroke-width="1px" opacity="0.25"></line><line x1="27.200000000000003" y1="0" x2="27.200000000000003" y2="178" fill="rgb(0, 0, 0)" stroke="rgb(60, 60, 60)" stroke-width="1px" opacity="0.25"></line><line x1="54.400000000000006" y1="0" x2="54.400000000000006" y2="178" fill="rgb(0, 0, 0)" stroke="rgb(60, 60, 60)" stroke-width="1px" opacity="0.25"></line><line x1="81.6" y1="0" x2="81.6" y2="178" fill="rgb(0, 0, 0)" stroke="rgb(60, 60, 60)" stroke-width="1px" opacity="0.25"></line><line x1="108.80000000000001" y1="0" x2="108.80000000000001" y2="178" fill="rgb(0, 0, 0)" stroke="rgb(60, 60, 60)" stroke-width="1px" opacity="0.25"></line><line x1="136" y1="0" x2="136" y2="178" fill="rgb(0, 0, 0)" stroke="rgb(60, 60, 60)" stroke-width="1px" opacity="0.25"></line><line x1="163.2" y1="0" x2="163.2" y2="178" fill="rgb(0, 0, 0)" stroke="rgb(60, 60, 60)" stroke-width="1px" opacity="0.25"></line><line x1="190.39999999999998" y1="0" x2="190.39999999999998" y2="178" fill="rgb(0, 0, 0)" stroke="rgb(60, 60, 60)" stroke-width="1px" opacity="0.25"></line><line x1="217.60000000000002" y1="0" x2="217.60000000000002" y2="178" fill="rgb(0, 0, 0)" stroke="rgb(60, 60, 60)" stroke-width="1px" opacity="0.25"></line><line x1="244.8" y1="0" x2="244.8" y2="178" fill="rgb(0, 0, 0)" stroke="rgb(60, 60, 60)" stroke-width="1px" opacity="0.25"></line><line x1="272" y1="0" x2="272" y2="178" fill="rgb(0, 0, 0)" stroke="rgb(60, 60, 60)" stroke-width="1px" opacity="0.25"></line></g><g><line x1="0" y1="178" x2="272" y2="178" fill="rgb(0, 0, 0)" stroke="rgb(60, 60, 60)" stroke-width="1px" opacity="0.25"></line><line x1="0" y1="163.16666666666666" x2="272" y2="163.16666666666666" fill="rgb(0, 0, 0)" stroke="rgb(60, 60, 60)" stroke-width="1px" opacity="0.25"></line><line x1="0" y1="148.33333333333334" x2="272" y2="148.33333333333334" fill="rgb(0, 0, 0)" stroke="rgb(60, 60, 60)" stroke-width="1px" opacity="0.25"></line><line x1="0" y1="133.5" x2="272" y2="133.5" fill="rgb(0, 0, 0)" stroke="rgb(60, 60, 60)" stroke-width="1px" opacity="0.25"></line><line x1="0" y1="118.66666666666669" x2="272" y2="118.66666666666669" fill="rgb(0, 0, 0)" stroke="rgb(60, 60, 60)" stroke-width="1px" opacity="0.25"></line><line x1="0" y1="103.83333333333334" x2="272" y2="103.83333333333334" fill="rgb(0, 0, 0)" stroke="rgb(60, 60, 60)" stroke-width="1px" opacity="0.25"></line><line x1="0" y1="89" x2="272" y2="89" fill="rgb(0, 0, 0)" stroke="rgb(60, 60, 60)" stroke-width="1px" opacity="0.25"></line><line x1="0" y1="74.16666666666666" x2="272" y2="74.16666666666666" fill="rgb(0, 0, 0)" stroke="rgb(60, 60, 60)" stroke-width="1px" opacity="0.25"></line><line x1="0" y1="59.333333333333385" x2="272" y2="59.333333333333385" fill="rgb(0, 0, 0)" stroke="rgb(60, 60, 60)" stroke-width="1px" opacity="0.25"></line><line x1="0" y1="44.50000000000003" x2="272" y2="44.50000000000003" fill="rgb(0, 0, 0)" stroke="rgb(60, 60, 60)" stroke-width="1px" opacity="0.25"></line><line x1="0" y1="29.666666666666686" x2="272" y2="29.666666666666686" fill="rgb(0, 0, 0)" stroke="rgb(60, 60, 60)" stroke-width="1px" opacity="0.25"></line><line x1="0" y1="14.833333333333343" x2="272" y2="14.833333333333343" fill="rgb(0, 0, 0)" stroke="rgb(60, 60, 60)" stroke-width="1px" opacity="0.25"></line><line x1="0" y1="0" x2="272" y2="0" fill="rgb(0, 0, 0)" stroke="rgb(60, 60, 60)" stroke-width="1px" opacity="0.25"></line></g></g></g><g><g><line x1="0" y1="400.5" x2="272" y2="400.5" fill="rgb(0, 0, 0)" stroke="rgb(153, 153, 153)" stroke-width="1.5px"></line></g></g><g><g><line x1="27.200000000000003" y1="0" x2="27.200000000000003" y2="178" fill="rgb(0, 0, 0)" stroke="rgb(153, 153, 153)" stroke-width="1.5px"></line></g></g><g><g><g><g><g><path stroke="rgb(255, 112, 67)" stroke-width="2px" d="M34.816,-4.716996627373476L35.904,9.830488263945028L36.992000000000004,24.035726861505623L38.080000000000005,35.4254302034939L39.168,45.566292098144004L40.256,53.55850596449625L41.344,61.38378323489455L42.432,65.64326847639873L43.52,69.65518589581356L44.608000000000004,74.2091656286257L45.696000000000005,75.39416573137176L46.784,76.68233046517635L47.872,80.11166092275951L48.96,82.15394605753245L50.048,85.06555798142286L51.136,85.75289395826584L52.224000000000004,85.15463701914855L53.312000000000005,86.16035912562495L54.400000000000006,88.20759389373463L55.488,91.27021131153394L56.576,89.70096719131209L57.664,91.78063506759712L58.752,95.0117710428387L59.84,96.92053271193639L60.928000000000004,97.24333106702306L62.016000000000005,99.97519370537623L63.104000000000006,101.76208203794872L64.192,102.12429654302264L65.28,100.21371601934264L66.368,99.34570775079507L67.456,98.80931371703257L68.544,100.98549271192272L69.632,102.27542712518539L70.72,103.0160452508632L71.808,104.09492839166849L72.896,103.59104303965154L73.98400000000001,103.69789684089638L75.072,107.16709810320607L76.16000000000001,108.6143612256605L77.24799999999999,107.17847791847323L78.336,106.14696049410261L79.42399999999999,105.64617055088047L80.512,107.95559403956919L81.6,109.17583697833207L82.688,111.57073759515804L83.776,111.8548783589196L84.864,116.81928023471059L85.952,116.0637995607068L87.04,117.87016361195421L88.128,117.41129279874886L89.21600000000001,115.88530043409114L90.304,117.1308647690964L91.39200000000001,118.64747911485557L92.48,119.00973634993554L93.568,119.54759336953674L94.65599999999999,117.99683139390936L95.744,117.12607811491003L96.832,116.41732817451346L97.92,121.31727622485276L99.008,119.17203679801692L100.096,119.38049686226256L101.184,121.08033150994581L102.272,122.79051583546683L103.36,124.02264416339963L104.44800000000001,124.56613818082988L105.536,125.50543565317264L106.62400000000001,126.72524077155748L107.712,124.56476983105277L108.80000000000001,123.69730008845607L109.888,120.77336290600945L110.976,121.80356787317822L112.064,124.87208317919867L113.152,124.62460245611844L114.24,124.57942349467223L115.328,125.33666460565854L116.416,123.29032731564118L117.504,125.47489919967222L118.592,129.0468225719935L119.68,127.68162765358329L120.768,125.80363458546665L121.85600000000001,125.28099333138861L122.944,125.99183877443232L124.03200000000001,126.61024589619014L125.12,128.29041201639754L126.20800000000001,130.07195348005644L127.296,132.90119933959534L128.384,133.72337484286243L129.47199999999998,133.5629715279302L130.56,135.02643662426237L131.648,133.71240411043186L132.736,132.51064768934262L133.824,133.94021469456362L134.912,133.55954267642346L136,134.57274872101215L137.088,134.72412596168243L138.176,132.67596667223444L139.264,132.70297505783998L140.352,133.7391966799575L141.44,136.23025394000675L142.52800000000002,133.373696457454L143.616,134.75057258473342L144.704,137.26187479257487L145.792,138.05609943723618L146.88,137.60398066593768L147.96800000000002,139.58877580495812L149.056,140.56712791799788L150.144,140.51272358981345L151.23200000000003,137.55727735253714L152.32000000000002,136.1584940697305L153.408,135.14364892317172L154.49599999999998,136.80126225594668L155.58399999999997,137.74553355163727L156.672,137.8905192728026L157.76,138.19725022207797L158.84799999999998,137.14947575822134L159.93599999999998,137.4778701454083L161.024,140.4321860943047L162.112,141.2154491865918L163.2,138.76324705228913L164.28799999999998,138.2133506374302L165.376,137.00371912142094L166.464,138.6573824267812L167.552,139.75372450637187L168.64,141.51852406514107L169.728,141.4810120430733L170.816,146.0039377153205L171.904,145.1237174157473L172.992,146.37297357027762L174.08,145.76972204588873L175.168,143.7117939997297L176.256,144.56793997736264L177.344,145.6745005809356L178.43200000000002,145.54031715967787L179.52,145.80398339934268L180.608,144.13184569820035L181.696,142.95900002247654L182.78400000000002,142.08624589717328L183.872,147.03932519918246L184.96,144.60531331002053L186.048,144.57455338378352L187.136,146.078260580736L188.224,147.35831492744148L189.31199999999998,148.44203344346442L190.39999999999998,148.6543062330963L191.488,149.45165369123308L192.576,150.3665987961099L193.664,147.9352226761543L194.75199999999998,146.59754479572555L195.84,143.47919605162966L196.928,144.29897912733094L198.016,147.03116361534L199.10399999999998,146.58367389183482L200.192,146.3834919079616L201.28,146.77815473543447L202.368,144.62279281099745L203.456,146.82884275762305L204.544,149.9182399820173L205.632,148.0655183738997L206.72,146.1915766525187L207.808,145.636835407888L208.89600000000002,146.01951803664872L209.984,146.35407804191416L211.072,147.8101592306712L212.16,149.31321344243L213.24800000000002,151.84724509795413L214.336,152.61925394582693L215.424,152.0766312713302L216.512,153.3513147454387L217.60000000000002,151.90988123541632L218.68800000000002,150.22394211367106L219.776,151.37691932882075L220.864,150.6503400204492L221.952,151.28633253959293L223.04,151.36985412351774L224.128,149.1960195488482L225.21599999999998,148.9658091259052L226.304,149.77474059613843L227.392,152.1723290957151L228.48,149.00737928611866L229.56799999999998,150.37879855988123L230.656,152.63448729251442L231.744,153.0440044768728L232.832,152.4216775636719L233.92,154.17377867743448L235.008,154.8557818955883L236.096,154.77556174357957L237.184,151.23995338297024L238.272,149.6656490152049L239.36,148.39162333716757L240.448,149.73819122260696L241.536,150.34906167315972L242.624,150.4127356838834L243.71200000000002,150.4437184710295L244.8,149.16325129542696" style="fill: none;" fill="none"></path></g><g><path stroke="rgb(238, 51, 119)" stroke-width="2px" d="M34.816,-3.0997010552144957L35.904,10.642065625525447L36.992000000000004,24.00183524161045L38.080000000000005,34.663095213835845L39.168,44.41894365567185L40.256,52.39075198163067L41.344,60.092267623851896L42.432,64.22071553626868L43.52,68.21796215353424L44.608000000000004,73.02241721996835L45.696000000000005,74.23046170213674L46.784,75.44593795711415L47.872,78.8776661974257L48.96,80.86467584313709L50.048,83.84738331989631L51.136,84.50552629211114L52.224000000000004,83.99996746941227L53.312000000000005,85.07228545639603L54.400000000000006,87.19433381043241L55.488,90.23229655809895L56.576,88.75055071563953L57.664,90.99861713527652L58.752,94.13283060804542L59.84,95.97621010454442L60.928000000000004,96.31021026459213L62.016000000000005,99.01267173948649L63.104000000000006,100.88320595054904L64.192,101.14451981754216L65.28,99.1696784703459L66.368,98.43989838454564L67.456,97.98083937654972L68.544,100.1765133730049L69.632,101.56703931352203L70.72,102.29479178442897L71.808,103.37342470963495L72.896,102.81453038474662L73.98400000000001,102.86196083162054L75.072,106.3490088925869L76.16000000000001,107.7476934998363L77.24799999999999,106.28257113343064L78.336,105.48101871991487L79.42399999999999,105.08433478146495L80.512,107.29898013119723L81.6,108.58515200682423L82.688,110.90270604493122L83.776,111.20528490028012L84.864,116.11412117490764L85.952,115.24493675396508L87.04,117.2780969121012L88.128,116.76172758606766L89.21600000000001,115.1806109992721L90.304,116.40842817513514L91.39200000000001,117.97399203551846L92.48,118.43982978208687L93.568,118.89008376326456L94.65599999999999,117.34352146780267L95.744,116.52562006629967L96.832,115.93882673770663L97.92,120.78149278436393L99.008,118.60496802016668L100.096,118.92528967987245L101.184,120.53260884045011L102.272,122.18393830473295L103.36,123.38128419726137L104.44800000000001,123.98008587365771L105.536,124.93022406740243L106.62400000000001,126.19129782901163L107.712,123.98789158256429L108.80000000000001,123.14620222325073L109.888,120.3020983398454L110.976,121.2098763382731L112.064,124.27406779108233L113.152,124.10495128141517L114.24,124.08929911001528L115.328,124.86328728245104L116.416,122.71680664566999L117.504,124.78856974968022L118.592,128.42194115794922L119.68,127.05505967742536L120.768,125.32499261263807L121.85600000000001,124.89871052640956L122.944,125.5925594552653L124.03200000000001,126.15016074881736L125.12,127.94885001921128L126.20800000000001,129.5978712698428L127.296,132.36035069985837L128.384,133.15260207551904L129.47199999999998,133.06313173710222L130.56,134.62941929939737L131.648,133.17744952783994L132.736,131.9681742251675L133.824,133.39829422995012L134.912,133.04835412878532L136,134.1620612500831L137.088,134.2420948878164L138.176,132.21103138934978L139.264,132.23562228209622L140.352,133.30444323734548L141.44,135.76232317914233L142.52800000000002,132.87655112641852L143.616,134.22456743020493L144.704,136.66663023053812L145.792,137.4216524216684L146.88,136.95170601128453L147.96800000000002,138.94449165613798L149.056,140.00073132803848L150.144,139.99063346718242L151.23200000000003,136.98028917670936L152.32000000000002,135.6817956818781L153.408,134.57888670287383L154.49599999999998,136.22699145191027L155.58399999999997,137.21531674690908L156.672,137.3327247943155L157.76,137.64094550484452L158.84799999999998,136.5323380891921L159.93599999999998,136.6973132767941L161.024,139.66673998506857L162.112,140.44623188459076L163.2,138.15145606368702L164.28799999999998,137.63081574382335L165.376,136.45849300985705L166.464,138.0683516595672L167.552,139.17098249995175L168.64,140.84070895912328L169.728,140.76719550372405L170.816,145.28335964728143L171.904,144.41897194414585L172.992,145.75077847339264L174.08,145.0774583877974L175.168,142.89890016288675L176.256,143.7179415057368L177.344,144.85194896639987L178.43200000000002,144.79124272057376L179.52,145.01528531028205L180.608,143.34994329043255L181.696,142.21581191834622L182.78400000000002,141.43194581876284L183.872,146.25319872981362L184.96,143.82854700100057L186.048,143.78665410684528L187.136,145.23136898998604L188.224,146.4997298546087L189.31199999999998,147.52144612237518L190.39999999999998,147.80538647988266L191.488,148.55075002681508L192.576,149.49290017071144L193.664,147.01139544516468L194.75199999999998,145.76282187543111L195.84,142.66445880875068L196.928,143.35557793226883L198.016,146.12411534774526L199.10399999999998,145.74191563122406L200.192,145.4563859986838L201.28,145.9123800846483L202.368,143.6616492580898L203.456,145.7859554794348L204.544,148.88691572985547L205.632,146.95610638841887L206.72,145.2553203208341L207.808,144.69548330921498L208.89600000000002,145.07773259213707L209.984,145.3739935413866L211.072,146.79386862849407L212.16,148.23039826195566L213.24800000000002,150.78774854605078L214.336,151.50600256759728L215.424,151.00842873795114L216.512,152.37249783203967L217.60000000000002,150.82379716749568L218.68800000000002,149.12022962241718L219.776,150.30207637589783L220.864,149.6126446464158L221.952,150.33061547310135L223.04,150.30542450287527L224.128,148.18935626231783L225.21599999999998,147.99244760761553L226.304,148.73904358122684L227.392,151.11470669174554L228.48,147.94710517921666L229.56799999999998,149.25447809496694L230.656,151.41862722118205L231.744,151.82126103170418L232.832,151.21372459527475L233.92,152.91849726555722L235.008,153.61560996046452L236.096,153.5585167865204L237.184,150.07595535478478L238.272,148.60779604332538L239.36,147.24796068479753L240.448,148.58529029574078L241.536,149.2525284903412L242.624,149.27898108664147L243.71200000000002,149.36587348602012L244.8,148.03353043608945" style="fill: none;" fill="none"></path></g><g><path stroke="rgb(51, 187, 238)" stroke-width="2px" d="M34.816,-3.8959732412305925L35.904,9.241527009689833L36.992000000000004,22.134949703786674L38.080000000000005,32.23128198549878L39.168,41.59133400616636L40.256,49.250440659868815L41.344,56.98303489153989L42.432,60.855141592347806L43.52,64.6303822743776L44.608000000000004,69.47869081726097L45.696000000000005,70.37787413580064L46.784,71.46501126869487L47.872,74.88319381253672L48.96,76.92515664265197L50.048,79.63665714501204L51.136,80.17180270575551L52.224000000000004,79.6768148906443L53.312000000000005,80.82409881986388L54.400000000000006,82.98058758601482L55.488,85.91942455462645L56.576,84.5523570180844L57.664,86.618729831198L58.752,89.71914241989062L59.84,91.38386085047777L60.928000000000004,91.70134135174558L62.016000000000005,94.3914720376783L63.104000000000006,96.18386278131119L64.192,96.56261247435681L65.28,94.34249012253501L66.368,93.58353463372667L67.456,93.07553759634668L68.544,95.27572885031002L69.632,96.45813064167781L70.72,97.18640026581215L71.808,98.25757723615207L72.896,97.84923720478612L73.98400000000001,97.63966933951454L75.072,101.01992222565765L76.16000000000001,102.39027709715913L77.24799999999999,100.93148392203308L78.336,100.19165758545131L79.42399999999999,99.76920737576486L80.512,101.99207364970664L81.6,103.10939239336487L82.688,105.29804952268931L83.776,105.5472750623539L84.864,110.54120840785868L85.952,109.4951520809995L87.04,111.73638258275332L88.128,111.01755555011962L89.21600000000001,109.39859649064982L90.304,110.58660546455508L91.39200000000001,112.13205435780931L92.48,112.61463887040769L93.568,112.99384799725782L94.65599999999999,111.24866898334206L95.744,110.53634481117832L96.832,110.06709886681462L97.92,114.87345440243541L99.008,112.62102716200465L100.096,113.10074288666002L101.184,114.61572419218072L102.272,116.09534821477644L103.36,117.21784293790924L104.44800000000001,117.90201305631955L105.536,118.71001540393128L106.62400000000001,120.06651082100765L107.712,117.72748162624617L108.80000000000001,116.83828442659407L109.888,114.03477987468102L110.976,115.00795550835049L112.064,117.90645706469962L113.152,117.670342563481L114.24,117.62725851469689L115.328,118.46416878819537L116.416,116.34986074837093L117.504,118.26047180536612L118.592,121.92818794912037L119.68,120.53204099098406L120.768,118.87772984361386L121.85600000000001,118.47293769750439L122.944,119.1508224056171L124.03200000000001,119.61847370739815L125.12,121.47875303750857L126.20800000000001,123.05174287195379L127.296,125.81102074008413L128.384,126.41192690226173L129.47199999999998,126.44949234143537L130.56,128.05285892058794L131.648,126.54968257647383L132.736,125.21701177697359L133.824,126.58071926876494L134.912,126.40915046321109L136,127.39194887193098L137.088,127.38392398344705L138.176,125.37609639319118L139.264,125.45994608334107L140.352,126.59359781383318L141.44,129.05072450899388L142.52800000000002,126.28126298743467L143.616,127.67740782514002L144.704,129.98993187197914L145.792,130.57914261648378L146.88,130.12123773473095L147.96800000000002,132.11171377883906L149.056,133.15136763167317L150.144,133.1280434412475L151.23200000000003,129.99814300632772L152.32000000000002,128.6920121166883L153.408,127.61428424043126L154.49599999999998,129.23425281240148L155.58399999999997,130.0428527764098L156.672,130.2196333431174L157.76,130.6000100467386L158.84799999999998,129.609437510994L159.93599999999998,129.59877906975763L161.024,132.46812334102958L162.112,133.31536226933738L163.2,130.98222123860643L164.28799999999998,130.51862203645302L165.376,129.39724474490242L166.464,131.04013916655714L167.552,132.05263329826394L168.64,133.64515581895472L169.728,133.48341197472553L170.816,138.15565460543874L171.904,137.1387140688561L172.992,138.56648222231445L174.08,137.77772439096518L175.168,135.6669869695553L176.256,136.38955246653848L177.344,137.58070399312192L178.43200000000002,137.597960483718L179.52,137.78633684219204L180.608,135.97549781581534L181.696,134.88949658898974L182.78400000000002,134.1145129666436L183.872,138.89752516343444L184.96,136.43810988184362L186.048,136.59719200561375L187.136,138.03846536256825L188.224,139.19596312549484L189.31199999999998,140.12811742289924L190.39999999999998,140.4651595397635L191.488,141.0559588537918L192.576,142.0282865206186L193.664,139.52237199782036L194.75199999999998,138.3243876082025L195.84,135.18813693020675L196.928,135.94539679384593L198.016,138.58418291387773L199.10399999999998,138.14968747443646L200.192,137.90556244778645L201.28,138.44963974591897L202.368,136.12063800595286L203.456,138.09878166895356L204.544,141.32678323019297L205.632,139.4216544133152L206.72,137.7388724824821L207.808,137.10601482834628L208.89600000000002,137.53634523975578L209.984,137.70410702801382L211.072,139.24603945916874L212.16,140.58407608015924L213.24800000000002,143.17785963620895L214.336,143.82354794267508L215.424,143.40438880715982L216.512,144.70528684175542L217.60000000000002,143.10573272377172L218.68800000000002,141.38767364305215L219.776,142.48008621542823L220.864,141.94970992093783L221.952,142.51161634257735L223.04,142.52926896809322L224.128,140.4320813584255L225.21599999999998,140.2801760376251L226.304,141.06533850475685L227.392,143.3415791029406L228.48,140.274267743111L229.56799999999998,141.65792723700227L230.656,143.7743845713426L231.744,144.1158317525559L232.832,143.38530585364737L233.92,145.07927066403371L235.008,145.84053046495362L236.096,145.78308724755433L237.184,142.2021767421229L238.272,140.79882233085215L239.36,139.48276448692073L240.448,140.68988983101758L241.536,141.2470987812705L242.624,141.37106354491078L243.71200000000002,141.53914662672776L244.8,140.34463177804366" style="fill: none;" fill="none"></path></g><g><path stroke="rgb(0, 119, 187)" stroke-width="2px" d="M34.816,-9.887277865058792L35.904,4.407426406950634L36.992000000000004,18.355522029886714L38.080000000000005,29.35029030062603L39.168,39.34867724758129L40.256,47.429661475607105L41.344,55.38878741602079L42.432,59.39141376637146L43.52,63.414324197510254L44.608000000000004,68.3059960443202L45.696000000000005,69.50308246718102L46.784,70.79988414897699L47.872,74.22425279264162L48.96,76.29039729639649L50.048,79.20083388847222L51.136,79.87546857349844L52.224000000000004,79.42958540150134L53.312000000000005,80.5551507863458L54.400000000000006,82.65376500842875L55.488,85.46625246282359L56.576,84.08363809742221L57.664,86.20432647693829L58.752,89.37453282237365L59.84,91.25990681423112L60.928000000000004,91.5295725499064L62.016000000000005,94.30296717112996L63.104000000000006,96.12788819062311L64.192,96.53644031336779L65.28,94.44537416311101L66.368,93.60564163779533L67.456,93.14680109210161L68.544,95.32417370762701L69.632,96.59244505381787L70.72,97.34129873902084L71.808,98.43195581517962L72.896,97.9515868189547L73.98400000000001,97.78516393672263L75.072,101.23766788167471L76.16000000000001,102.66349665531072L77.24799999999999,101.13178545748707L78.336,100.32652223017088L79.42399999999999,99.934748545715L80.512,102.19346296120477L81.6,103.41406959293556L82.688,105.59484567244873L83.776,105.86278985738848L84.864,110.84106252273847L85.952,109.83040363200959L87.04,112.00419026181312L88.128,111.36054891088703L89.21600000000001,109.76613980376149L90.304,110.97371673888038L91.39200000000001,112.51412197931263L92.48,112.93982583473324L93.568,113.39633594070003L94.65599999999999,111.69909359284712L95.744,110.877952853452L96.832,110.34308453377734L97.92,115.08047993169222L99.008,112.87047144086756L100.096,113.2711123723483L101.184,114.89827417326148L102.272,116.52391577755716L103.36,117.63231009440801L104.44800000000001,118.25130797742119L105.536,119.09922748397776L106.62400000000001,120.42028050576242L107.712,118.1998914854999L108.80000000000001,117.31570261184032L109.888,114.48773119527291L110.976,115.3427757760576L112.064,118.31012041215251L113.152,118.12430164919786L114.24,118.04954091930287L115.328,118.87550850048001L116.416,116.72077598969737L117.504,118.72895917177559L118.592,122.41809904305356L119.68,120.98234525359604L120.768,119.22575876933496L121.85600000000001,118.75639731380639L122.944,119.4737475317317L124.03200000000001,120.03051831731784L125.12,121.79468067333849L126.20800000000001,123.45098104384985L127.296,126.29077973946401L128.384,126.95768818249982L129.47199999999998,126.90922286306233L130.56,128.47560519890632L131.648,126.9755953167874L132.736,125.71642522901288L133.824,127.05285157893094L134.912,126.732350338304L136,127.72572489706911L137.088,127.78631713466785L138.176,125.76300441310968L139.264,125.80122858933309L140.352,126.84959059547407L141.44,129.22141582324716L142.52800000000002,126.48475922676693L143.616,127.85446343540812L144.704,130.2697599513511L145.792,130.92291878361584L146.88,130.4616869213129L147.96800000000002,132.39434599411157L149.056,133.46253596662484L150.144,133.40347628743848L151.23200000000003,130.3425922371034L152.32000000000002,128.99566071691618L153.408,127.8890600768477L154.49599999999998,129.46934697038432L155.58399999999997,130.34886067513526L156.672,130.57160578610836L157.76,130.95587345625364L158.84799999999998,129.90721721251052L159.93599999999998,129.91243670860473L161.024,132.79905276981717L162.112,133.6430532305701L163.2,131.228877888278L164.28799999999998,130.5755783554847L165.376,129.5134238781692L166.464,131.17871727042365L167.552,132.28406030432168L168.64,133.94505908387376L169.728,133.82232150811438L170.816,138.38306295898644L171.904,137.40967500225955L172.992,138.82951072861505L174.08,138.0672847668911L175.168,135.883727548952L176.256,136.71175130115057L177.344,137.77117991391484L178.43200000000002,137.7387064453582L179.52,137.9939126743845L180.608,136.27839821421932L181.696,135.1718231628964L182.78400000000002,134.33456634227213L183.872,139.08974913802012L184.96,136.5894109013454L186.048,136.67091233746862L187.136,138.12727921336884L188.224,139.3383369354208L189.31199999999998,140.3139158511837L190.39999999999998,140.54705895729936L191.488,141.3161310538535L192.576,142.24846491326204L193.664,139.73079054222097L194.75199999999998,138.47158456245415L195.84,135.35556755303952L196.928,136.03238801463215L198.016,138.68171611808003L199.10399999999998,138.30778228073672L200.192,138.11103530027083L201.28,138.59954654751786L202.368,136.28115025110185L203.456,138.3451232847401L204.544,141.50336858054968L205.632,139.57870865913813L206.72,137.72023274731188L207.808,137.00616987286935L208.89600000000002,137.53999700390654L209.984,137.87514676000688L211.072,139.3702362061303L212.16,140.74216262186138L213.24800000000002,143.27276814590635L214.336,143.914394342566L215.424,143.45743251860011L216.512,144.80242593101582L217.60000000000002,143.19324923562164L218.68800000000002,141.56546202306242L219.776,142.6600505451617L220.864,142.0644574606572L221.952,142.6615153418474L223.04,142.65767180123882L224.128,140.55982292810455L225.21599999999998,140.39089202753328L226.304,141.1481281431811L227.392,143.37502015703706L228.48,140.31253849510625L229.56799999999998,141.64517768449153L230.656,143.86431511378225L231.744,144.25204297782545L232.832,143.57075230011282L233.92,145.21542164323094L235.008,145.98718733372706L236.096,145.82017637957586L237.184,142.2950549702016L238.272,140.79394707958903L239.36,139.46775850781404L240.448,140.75929138538402L241.536,141.33056286261774L242.624,141.46132418683948L243.71200000000002,141.6119688819157L244.8,140.31635649623317" style="fill: none;" fill="none"></path></g><g><path stroke="rgb(204, 51, 17)" stroke-width="2px" d="M35.904,-2.6080039516744193L36.992000000000004,11.609786818635342L38.080000000000005,22.43635584699095L39.168,32.412081028698054L40.256,40.35778277985395L41.344,48.3641606972115L42.432,52.3580208331157L43.52,56.18601394683468L44.608000000000004,61.297483003418364L45.696000000000005,62.35581677611076L46.784,63.54326542008114L47.872,66.987703769533L48.96,69.24700933811641L50.048,72.19295775342619L51.136,72.73079936783566L52.224000000000004,72.3189541781415L53.312000000000005,73.55260640517469L54.400000000000006,75.9445195378835L55.488,78.83421708435847L56.576,77.50481788128015L57.664,79.71007325060523L58.752,82.8640659140165L59.84,84.70945303824539L60.928000000000004,85.00820309222973L62.016000000000005,87.77968219503076L63.104000000000006,89.5815131943599L64.192,89.9857882624172L65.28,87.66386499974917L66.368,87.02143411951515L67.456,86.51167320760878L68.544,88.74477108882239L69.632,89.91668649318464L70.72,90.71612870682436L71.808,91.87655012694191L72.896,91.49200737191919L73.98400000000001,91.1360032460875L75.072,94.53083385894618L76.16000000000001,95.8973169837023L77.24799999999999,94.56073655956347L78.336,93.79904830218499L79.42399999999999,93.45507738447102L80.512,95.70342296040654L81.6,96.8539878468404L82.688,99.00398508355202L83.776,99.22979542202924L84.864,104.22663383040013L85.952,102.97783766797963L87.04,105.41237457560723L88.128,104.7073111691108L89.21600000000001,103.09453787156093L90.304,104.22344223905513L91.39200000000001,105.77797465472773L92.48,106.4431546824139L93.568,106.76259854815177L94.65599999999999,105.01087123979195L95.744,104.33581173516748L96.832,103.80496000506938L97.92,108.49202843859877L99.008,106.27038354290573L100.096,106.85666394201748L101.184,108.33716915429335L102.272,109.8680620096964L103.36,110.9277977090781L104.44800000000001,111.57366168946257L105.536,112.35146580805521L106.62400000000001,113.76739158632441L107.712,111.40210989953329L108.80000000000001,110.57290686671685L109.888,107.75933888855428L110.976,108.56939033251714L112.064,111.47533560344604L113.152,111.38505707114354L114.24,111.34383369642148L115.328,112.30254841540844L116.416,109.86871026771026L117.504,111.65083663553054L118.592,115.45244500372839L119.68,114.06090893745838L120.768,112.42210295041652L121.85600000000001,111.7625827287053L122.944,112.63265565401801L124.03200000000001,113.03483891904246L125.12,114.92391586553984L126.20800000000001,116.4479589795188L127.296,119.30560164859588L128.384,119.79037589953757L129.47199999999998,119.86429480190921L130.56,121.5954636304131L131.648,119.96491014769978L132.736,118.70579074906094L133.824,119.993782737375L134.912,119.93212371181689L136,120.81547098027411L137.088,120.70454471508705L138.176,118.71797187248892L139.264,118.79994727245983L140.352,119.89297125183752L141.44,122.21109488870627L142.52800000000002,119.48442950605906L143.616,120.81166366791459L144.704,123.18397227161566L145.792,123.86643768489422L146.88,123.34715727849837L147.96800000000002,125.25429540406094L149.056,126.27933314758795L150.144,126.24025815716341L151.23200000000003,123.14473207388889L152.32000000000002,121.83058687604213L153.408,120.70701237851428L154.49599999999998,122.27610350648987L155.58399999999997,123.02330299020068L156.672,123.26226645191664L157.76,123.66814084140553L158.84799999999998,122.72014780414958L159.93599999999998,122.46896884186779L161.024,125.32284410800763L162.112,126.11682119373219L163.2,123.88374925297741L164.28799999999998,123.12356658364678L165.376,122.12059437981455L166.464,123.80800071409071L167.552,124.75201949507432L168.64,126.39555543877938L169.728,126.1901734802222L170.816,130.87005673248146L171.904,129.6484433634991L172.992,131.32711423778022L174.08,130.44955900516206L175.168,128.2703430843716L176.256,129.0442666963159L177.344,130.2425736241789L178.43200000000002,130.27519273280612L179.52,130.36679649066633L180.608,128.55704610970642L181.696,127.54883712983343L182.78400000000002,126.76823754185169L183.872,131.32350069924433L184.96,128.91333787427885L186.048,129.05818200580205L187.136,130.43664786302205L188.224,131.66522394666964L189.31199999999998,132.43948207129972L190.39999999999998,132.70147795178457L191.488,133.34522589066404L192.576,134.37918529521693L193.664,131.76380867329001L194.75199999999998,130.5818411503241L195.84,127.50923188491694L196.928,128.1781532603345L198.016,130.70492554333856L199.10399999999998,130.4013388988995L200.192,130.19068945473177L201.28,130.80169006800102L202.368,128.29783469408022L203.456,130.16124166231907L204.544,133.4343061597043L205.632,131.6127219766911L206.72,129.74991572919706L207.808,128.91220588499237L208.89600000000002,129.5689787726438L209.984,129.67184361582017L211.072,131.29411837715915L212.16,132.55264878228712L213.24800000000002,135.21198283804702L214.336,135.67050005896834L215.424,135.40111019951468L216.512,136.81093176251073L217.60000000000002,135.08923843728758L218.68800000000002,133.45511635478692L219.776,134.49894574683722L220.864,134.06120391330214L221.952,134.5322640159195L223.04,134.5011875600695L224.128,132.36278776950115L225.21599999999998,132.23396211838607L226.304,133.02066522027582L227.392,135.1877517850331L228.48,132.22123622205643L229.56799999999998,133.46529685243047L230.656,135.63660610586848L231.744,136.03953969997434L232.832,135.23670429699982L233.92,136.8779610795579L235.008,137.61823398288897L236.096,137.53216394434457L237.184,134.01781559377963L238.272,132.53569797112576L239.36,131.19814944724658L240.448,132.4705379672473L241.536,132.950856725432L242.624,133.11681800686767L243.71200000000002,133.31927986306025L244.8,132.13481094456955" style="fill: none;" fill="none"></path></g></g></g></g><g opacity="0.2"><g><g><g><path stroke="rgb(255, 112, 67)" stroke-width="2px" d="M32.64,-8.251432100931765L33.728,11.48770777384442L34.816,23.967599550882994L35.904,31.04086089134219L36.992000000000004,44.985694567362486L38.080000000000005,52.33781226476036L39.168,60.68560806910199L40.256,65.50333348910016L41.344,73.0961482524872L42.432,72.02415156364442L43.52,75.66834616661073L44.608000000000004,81.03692340850831L45.696000000000005,77.17116443316144L46.784,78.61425050099692L47.872,85.25513418515524L48.96,85.21718708674115L50.048,89.43281618754071L51.136,86.78387530644736L52.224000000000004,84.25726342201234L53.312000000000005,87.66893037160239L54.400000000000006,91.27843149503073L55.488,95.86412437756857L56.576,87.34710502624513L57.664,94.9001336892446L58.752,99.8584720293681L59.84,99.78367416063946L60.928000000000004,97.72752849260968L62.016000000000005,104.07298711935681L63.104000000000006,104.44241432348889L64.192,102.66761827468873L65.28,97.34784531593324L66.368,98.04369537035626L67.456,98.00472267468771L68.544,104.24976118405661L69.632,104.21032873789471L70.72,104.12697243690492L71.808,105.7132531007131L72.896,102.83521501223248L73.98400000000001,103.85817754268648L75.072,112.37089999516806L76.16000000000001,110.78525590896608L77.24799999999999,105.02465295791627L78.336,104.59968435764314L79.42399999999999,104.89498563607535L80.512,111.41972927252453L81.6,111.00620138645174L82.688,115.16308852036795L83.776,112.28108950455984L84.864,124.26588304837546L85.952,114.93057854970297L87.04,120.57970968882245L88.128,116.72298657894135L89.21600000000001,113.59631188710532L90.304,118.99921127160391L91.39200000000001,120.92240063349408L92.48,119.55312220255536L93.568,120.3543788989385L94.65599999999999,115.67068843046826L95.744,115.81994819641113L96.832,115.35420326391858L97.92,128.66719830036163L99.008,115.95417765776318L100.096,119.69318695863089L101.184,123.63008348147075L102.272,125.35579232374828L103.36,125.87083665529887L104.44800000000001,125.38137920697531L105.536,126.9143818616867L106.62400000000001,128.55494844913483L107.712,121.32406342029572L108.80000000000001,122.39609547456106L109.888,116.38745713233948L110.976,123.34887532393138L112.064,129.47485613822937L113.152,124.25338137149811L114.24,124.51165505250296L115.328,126.47252627213797L116.416,120.22082138061523L117.504,128.7517570257187L118.592,134.40470763047537L119.68,125.63383527596793L120.768,122.98664498329163L121.85600000000001,124.4970314502716L122.944,127.05810693899791L124.03200000000001,127.5378565788269L125.12,130.81066119670868L126.20800000000001,132.74426567554474L127.296,137.14506812890372L128.384,134.95663809776306L129.47199999999998,133.32236655553183L130.56,137.22163426876068L131.648,131.7413553396861L132.736,130.70801305770874L133.824,136.08456520239514L134.912,132.98853464921316L136,136.0925577878952L137.088,134.9511918226878L138.176,129.60372773806256L139.264,132.7434876362483L140.352,135.29352911313376L141.44,139.9668398300807L142.52800000000002,129.08886023362479L143.616,136.8158867756526L144.704,141.02882810433707L145.792,139.2474364042282L146.88,136.92580250899L147.96800000000002,142.56596851348877L149.056,142.0346560875575L150.144,140.43111709753674L151.23200000000003,133.12410799662274L152.32000000000002,134.06031914552054L153.408,133.62138120333356L154.49599999999998,139.28768225510916L155.58399999999997,139.16194049517316L156.672,138.1079978545507L157.76,138.65734664599103L158.84799999999998,135.57781406243643L159.93599999999998,137.97046172618866L161.024,144.86366001764935L162.112,142.3903438250224L163.2,135.08494385083517L164.28799999999998,137.38850601514181L165.376,135.18927184740704L166.464,141.1378773848216L167.552,141.39823762575787L168.64,144.1657234032949L169.728,141.42474400997162L170.816,152.7883262236913L171.904,143.80338696638745L172.992,148.24685780207318L174.08,144.86484475930533L175.168,140.62490193049115L176.256,145.85215894381207L177.344,147.33434148629507L178.43200000000002,145.33904202779135L179.52,146.19948275883993L180.608,141.62363914648694L181.696,141.1997315088908L182.78400000000002,140.77711470921835L183.872,154.46894415219626L184.96,140.95429547627768L186.048,144.528413494428L187.136,148.33382137616476L188.224,149.2783964474996L189.31199999999998,150.06761121749878L190.39999999999998,148.97271541754407L191.488,150.64767487843832L192.576,151.7390164534251L193.664,144.28815849622092L194.75199999999998,144.5910279750824L195.84,138.80167293548584L196.928,145.52865374088287L198.016,151.12944034735364L199.10399999999998,145.91243930657706L200.192,146.0832189321518L201.28,147.3701489766439L202.368,141.38974992434186L203.456,150.13791767756146L204.544,154.5523358186086L205.632,145.28643596172333L206.72,143.3806640704473L207.808,144.8047235409419L208.89600000000002,146.59354197978973L209.984,146.85591804981232L211.072,149.99428101380667L212.16,151.56779476006827L213.24800000000002,155.64829258124036L214.336,153.7772672176361L215.424,151.26269725958508L216.512,155.26333995660147L217.60000000000002,149.7477309703827L218.68800000000002,147.69503343105316L219.776,153.10638515154523L220.864,149.56047105789185L221.952,152.24032131830853L223.04,151.4951364994049L224.128,145.93526768684387L225.21599999999998,148.6204934914907L226.304,150.98813780148825L227.392,155.76871184508008L228.48,144.25995457172394L229.56799999999998,152.43592747052512L230.656,156.01802039146423L231.744,153.65828025341034L232.832,151.48818719387054L233.92,156.80193034807843L235.008,155.87878672281903L236.096,154.65523151556653L237.184,145.93654084205627L238.272,147.30419246355694L239.36,146.4805848201116L240.448,151.758043050766L241.536,151.26536734898886L242.624,150.508246699969L243.71200000000002,150.49019265174866L244.8,147.24255053202313" style="fill: none;" fill="none"></path></g><g><path stroke="rgb(238, 51, 119)" stroke-width="2px" d="M32.64,-0.3585770924885878L33.728,17.393662611643492L34.816,24.346009572347043L35.904,30.677693367004423L36.992000000000004,43.70490042368573L38.080000000000005,50.49382376670839L39.168,58.96423149108888L40.256,64.30508224169415L41.344,71.61939430236818L42.432,70.40529934565228L43.52,74.20913346608481L44.608000000000004,80.22571134567262L45.696000000000005,76.04201722145082L46.784,77.26884373029074L47.872,84.02473576863608L48.96,83.84500869115195L50.048,88.32128095626832L51.136,85.49271909395856L52.224000000000004,83.24163921674094L53.312000000000005,86.68074973424277L54.400000000000006,90.37739125887555L55.488,94.78922772407533L56.576,86.52793574333192L57.664,94.37071331342062L58.752,98.83414793014528L59.84,98.74127833048504L60.928000000000004,96.81121039390565L62.016000000000005,103.06636341412863L63.104000000000006,103.68900704383852L64.192,101.53649059931439L65.28,96.20741653442384L66.368,97.3452282746633L67.456,97.29225087165834L68.544,103.47002434730531L69.632,103.65282821655275L70.72,103.38642048835756L71.808,104.99137409528097L72.896,101.97618889808656L73.98400000000001,102.93310650189719L75.072,111.57958098252615L76.16000000000001,109.845720410347L77.24799999999999,104.0848875840505L78.336,104.2786900997162L79.42399999999999,104.48930887381238L80.512,110.62094815572104L81.6,110.51440982023877L82.688,114.3790371020635L83.776,111.6591531833013L84.864,123.4773755868276L85.952,113.94116012255353L87.04,120.32783714930218L88.128,115.98717359701794L89.21600000000001,112.8089361190796L90.304,118.25015393892926L91.39200000000001,120.32233782609305L92.48,119.13858640193939L93.568,119.56546473503113L94.65599999999999,115.0236780246099L95.744,115.29876796404523L96.832,115.05863674481711L97.92,128.0454918543498L99.008,115.34018087387085L100.096,119.40577216943106L101.184,122.94358758131663L102.272,124.66093250115713L103.36,125.17730303605398L104.44800000000001,124.87828838825226L105.536,126.35543135801952L106.62400000000001,128.08290847142538L107.712,120.68278221289319L108.80000000000001,121.8836681842804L109.888,116.03594251473746L110.976,122.57154333591461L112.064,128.87035497029623L113.152,123.85127651691437L114.24,124.06582085291545L115.328,126.02426954110464L116.416,119.49708569049835L117.504,127.8962144056956L118.592,133.8719982703527L119.68,125.00473745663962L120.768,122.72989201545715L121.85600000000001,124.25928739706676L122.944,126.63333284854889L124.03200000000001,126.98656268914542L125.12,130.64688392480215L126.20800000000001,132.0714031457901L127.296,136.5040698448817L128.384,134.34097913901013L129.47199999999998,132.92892622947693L130.56,136.9788506428401L131.648,130.99949487050375L132.736,130.15426127115887L133.824,135.54347423712414L134.912,132.52344397703808L136,135.83262193202972L137.088,134.36214534441632L138.176,129.1644361416499L139.264,132.27250862121582L140.352,134.90767467021942L141.44,139.44914309183758L142.52800000000002,128.54789304733276L143.616,136.2465918858846L144.704,140.3297244310379L145.792,138.55418570836386L146.88,136.24678639570874L147.96800000000002,141.93367012341818L149.056,141.5850908358892L150.144,139.97548667589825L151.23200000000003,132.46477274099988L152.32000000000002,133.73405543963116L153.408,132.92452323436737L154.49599999999998,138.6991485754649L155.58399999999997,138.69780468940735L156.672,137.5088368654251L157.76,138.10327657063803L158.84799999999998,134.8694269657135L159.93599999999998,136.94477605819702L161.024,144.12088004748028L162.112,141.61546973387402L163.2,134.70929233233136L164.28799999999998,136.84985526402792L165.376,134.7000089089076L166.464,140.48313963413239L167.552,140.82492876052856L168.64,143.34529864788055L169.728,140.6569253206253L170.816,152.0576058626175L171.904,143.12239038944244L172.992,147.7484882672628L174.08,144.0674782594045L175.168,139.63106282552084L176.256,144.9465035200119L177.344,146.5529601573944L178.43200000000002,144.70018335183462L179.52,145.35134919484457L180.608,140.85193026065826L181.696,140.5146148602168L182.78400000000002,140.25614666938782L183.872,153.48507809638977L184.96,140.19156940778097L186.048,143.7238147656123L187.136,147.39844131469727L188.224,148.40227115154266L189.31199999999998,149.05402052402496L190.39999999999998,148.2312970161438L191.488,149.66879534721375L192.576,150.906125386556L193.664,143.2891383568446L194.75199999999998,143.8899615208308L195.84,138.01691420873007L196.928,144.39225661754608L198.016,150.27692147096L199.10399999999998,145.16861605644226L200.192,145.02809154987335L201.28,146.5963712135951L202.368,140.28555301825207L203.456,148.97241481145224L204.544,153.53835610548657L205.632,144.05989237626395L206.72,142.704141219457L207.808,143.8557277917862L208.89600000000002,145.6511065165202L209.984,145.81838496526083L211.072,148.92368125915527L212.16,150.38519271214804L213.24800000000002,154.62377397219342L214.336,152.5833835999171L215.424,150.26206799348196L216.512,154.41860147317252L217.60000000000002,148.50074617067975L218.68800000000002,146.5648783047994L219.776,152.07484650611877L220.864,148.5784970521927L221.952,151.4075717131297L223.04,150.26763804753622L224.128,145.01525390148163L225.21599999999998,147.69708462556204L226.304,149.8589375416438L227.392,154.67820135752362L228.48,143.19570291042328L229.56799999999998,151.21553746859234L230.656,154.66485091050467L231.744,152.4252117474874L232.832,150.3024199406306L233.92,155.47565627098083L235.008,154.66127900282544L236.096,153.47287702560425L237.184,144.8521132071813L238.272,146.4055570761363L239.36,145.20820764700574L240.448,150.59128471215567L241.536,150.25338578224182L242.624,149.31865998109183L243.71200000000002,149.4962120850881L244.8,146.03501586119336" style="fill: none;" fill="none"></path></g><g><path stroke="rgb(51, 187, 238)" stroke-width="2px" d="M31.552000000000003,-35.27379782994586L32.64,4.83225353558862L33.728,15.671472628911374L34.816,22.044251044591306L35.904,28.3961284955343L36.992000000000004,41.1502437591553L38.080000000000005,47.223158756891905L39.168,55.54651705423993L40.256,60.69742012023927L41.344,68.55667797724408L42.432,66.65571578343712L43.52,70.28880564371747L44.608000000000004,76.74773422876996L45.696000000000005,71.72626860936484L46.784,73.09544094403586L47.872,80.00994690259299L48.96,79.98791424433392L50.048,83.70375919342042L51.136,80.97450343767804L52.224000000000004,78.9343429406484L53.312000000000005,82.54501112302145L54.400000000000006,86.21530540784201L55.488,90.32766747474672L56.576,82.50175921122235L57.664,89.71828587849936L58.752,94.36975844701132L59.84,93.88093757629396L60.928000000000004,92.17756199836732L62.016000000000005,98.42666753133139L63.104000000000006,98.87244868278505L64.192,97.13073698679608L65.28,91.01230669021608L66.368,92.44510142008465L67.456,92.31354204813641L68.544,98.5760157108307L69.632,98.23173332214357L70.72,98.2788046995799L71.808,99.86434268951417L72.896,97.23672715822858L73.98400000000001,97.32531754175824L75.072,106.09030155340832L76.16000000000001,104.4458094040553L77.24799999999999,98.74329415957135L78.336,99.0819180806478L79.42399999999999,99.13553206125897L80.512,105.32637306054434L81.6,104.78537050882977L82.688,108.58103521664938L83.776,105.92111337184907L84.864,118.03210842609406L85.952,107.92606759071352L87.04,115.09822833538055L88.128,109.93931500116986L89.21600000000001,106.97015790144604L90.304,112.3686189254125L91.39200000000001,114.45022769769034L92.48,113.33851563930513L93.568,113.56266168753308L94.65599999999999,108.63090046246847L95.744,109.46785855293275L96.832,109.36322995026907L97.92,122.08298770586651L99.008,109.24238630135855L100.096,113.820316473643L101.184,116.88819615046185L102.272,118.31478424866995L103.36,118.90158502260846L104.44800000000001,118.92826823393506L105.536,119.92201892534894L106.62400000000001,122.10125394662222L107.712,114.21893783410391L108.80000000000001,115.5044886271159L109.888,109.82952304681143L110.976,116.46771895885468L112.064,122.25420939922333L113.152,117.31617081165314L114.24,117.56263244152069L115.328,119.71953419844311L116.416,113.17839868863425L117.504,121.12638839085898L118.592,127.4297621647517L119.68,118.4378205537796L120.768,116.3962631225586L121.85600000000001,117.86574947834015L122.944,120.16764946778616L124.03200000000001,120.3199506600698L125.12,124.26917203267416L126.20800000000001,125.41122762362163L127.296,129.94993754227957L128.384,127.31328614552817L129.47199999999998,126.50584050019583L130.56,130.45790878931683L131.648,124.29491806030273L132.736,123.21800557772319L133.824,128.62628050645193L134.912,126.15179725488028L136,128.8661464850108L137.088,127.37188665072124L138.176,122.36435500780743L139.264,125.58572061856589L140.352,128.29407540957135L141.44,132.73641455173492L142.52800000000002,122.12707070509595L143.616,129.77162508169812L144.704,133.45871794223785L145.792,131.46295873324078L146.88,129.43438041210175L147.96800000000002,135.09742784500122L149.056,134.71084841092429L150.144,133.09305715560913L151.23200000000003,125.30329235394797L152.32000000000002,126.73281578222911L153.408,125.99769242604575L154.49599999999998,131.66420567035675L155.58399999999997,131.2557527224223L156.672,130.48480419317883L157.76,131.17057510217032L158.84799999999998,128.12357870737713L159.93599999999998,129.58279140790304L161.024,136.77213974793753L162.112,134.58622066179913L163.2,127.48250969250998L164.28799999999998,129.82322323322296L165.376,127.7151788075765L166.464,133.50448079903921L167.552,133.5713744958242L168.64,136.03393959999084L169.728,133.24079620838165L170.816,145.1640185515086L171.904,135.61330326398215L172.992,140.70813445250195L174.08,136.59458764394125L175.168,132.5008808374405L176.256,137.47340071201324L177.344,139.36743128299713L178.43200000000002,137.62384521961212L179.52,138.06890137990317L180.608,133.2592392762502L181.696,133.26049474875134L182.78400000000002,132.9520375331243L183.872,146.07204345862073L184.96,132.7489869594574L186.048,136.83581519126892L187.136,140.2003753980001L188.224,140.93220976988476L189.31199999999998,141.52634886900586L190.39999999999998,140.97072271505994L191.488,141.9421578248342L192.576,143.48677802085876L193.664,135.76350021362305L194.75199999999998,136.52741102377576L195.84,130.4837609132131L196.928,137.08128658930463L198.016,142.54236209392548L199.10399999999998,137.49794431527457L200.192,137.5393749078115L201.28,139.2657556931178L202.368,132.62713539600372L203.456,141.0659971634547L204.544,146.168785572052L205.632,136.56396118799847L206.72,135.2146995862325L207.808,136.15672834714255L208.89600000000002,138.18184085687002L209.984,137.9557497104009L211.072,141.5589381059011L212.16,142.59113101164502L213.24800000000002,147.0685349702835L214.336,144.79208040237427L215.424,142.77565010388693L216.512,146.6566338936488L217.60000000000002,140.70640154679617L218.68800000000002,138.81058502197266L219.776,144.11870507399243L220.864,141.15414547920227L221.952,143.35447597503662L223.04,142.555747906367L224.128,137.28629994392395L225.21599999999998,140.05231805642447L226.304,142.24308220545453L227.392,146.75594000021619L228.48,135.6733007033666L229.56799999999998,143.73341647783917L230.656,146.9490705728531L231.744,144.62800252437592L232.832,142.28951700528464L233.92,147.62021787961325L235.008,146.98242016633353L236.096,145.69692242145538L237.184,136.83081098397574L238.272,138.69379071394604L239.36,137.50867772102356L240.448,142.5005778471629L241.536,142.08291220664978L242.624,141.55701069037121L243.71200000000002,141.79127124945325L244.8,138.5528595050176" style="fill: none;" fill="none"></path></g><g><path stroke="rgb(0, 119, 187)" stroke-width="2px" d="M32.64,-6.344457785288455L33.728,11.25808008511865L34.816,18.772418975830107L35.904,25.249242464701354L36.992000000000004,38.92625379562381L38.080000000000005,45.67623980840051L39.168,54.25557303428651L40.256,59.50716145833336L41.344,67.30148839950563L42.432,65.3875117301941L43.52,69.44396106402081L44.608000000000004,75.64005382855734L45.696000000000005,71.29820553461713L46.784,72.74475741386415L47.872,79.36028409004213L48.96,79.38942519823712L50.048,83.56632916132611L51.136,80.88739840189618L52.224000000000004,78.76076944669089L53.312000000000005,82.2434855302175L54.400000000000006,85.80167142550152L55.488,89.6849716504415L56.576,82.0097200870514L57.664,89.38535579045615L58.752,94.12983942031862L59.84,94.0879667599996L60.928000000000004,91.93407106399538L62.016000000000005,98.46305855115256L63.104000000000006,98.865269502004L64.192,97.14926846822104L65.28,91.30877502759299L66.368,92.34604287147523L67.456,92.45854028066L68.544,98.59023261070253L69.632,98.49485206604005L70.72,98.46457926432294L71.808,100.06794142723085L72.896,97.23103332519533L73.98400000000001,97.53552961349489L75.072,106.41642379760744L76.16000000000001,104.8022398153941L77.24799999999999,98.83421866099042L78.336,99.11862738927206L79.42399999999999,99.34708801905316L80.512,105.58153458436331L81.6,105.24497954050702L82.688,108.86600979169211L83.776,106.26470613479616L84.864,118.30847152074179L85.952,108.31441529591879L87.04,115.26487020651501L88.128,110.39508688449861L89.21600000000001,107.37452614307405L90.304,112.78508214155835L91.39200000000001,114.82472983996075L92.48,113.57838161786398L93.568,114.08110109965008L94.65599999999999,109.15323007106782L95.744,109.64624174435934L96.832,109.54078205426535L97.92,122.18657302856445L99.008,109.55545870463055L100.096,113.87207376956941L101.184,117.33901687463126L102.272,118.96237818400067L103.36,119.29490156968436L104.44800000000001,119.17980480194092L105.536,120.37110674381256L106.62400000000001,122.40186003843944L107.712,114.86930795510611L108.80000000000001,115.98941930135092L109.888,110.24577407042187L110.976,116.62534264723462L112.064,122.76113736629486L113.152,117.84557350476584L114.24,117.93739982446036L115.328,120.11445987224579L116.416,113.48867722352347L117.504,121.74123394489288L118.592,127.9518088499705L119.68,118.8287145694097L120.768,116.59087904294333L121.85600000000001,118.05235513051352L122.944,120.54977285861969L124.03200000000001,120.86567449569702L125.12,124.44092420736949L126.20800000000001,125.935431599617L127.296,130.55047778288525L128.384,127.95805084705353L129.47199999999998,126.83652488390605L130.56,130.82517870267233L131.648,124.72558049360912L132.736,123.82767009735107L133.824,129.0574911038081L134.912,126.25159847736359L136,129.2157867352168L137.088,127.87720549106598L138.176,122.7280353307724L139.264,125.85856485366821L140.352,128.42213360468548L141.44,132.77915366490683L142.52800000000002,122.37977433204651L143.616,129.90901974836987L144.704,133.8927047252655L145.792,131.90265703201294L146.88,129.7698391278585L147.96800000000002,135.29333460330963L149.056,135.0648209253947L150.144,133.31488676865897L151.23200000000003,125.75126616160075L152.32000000000002,126.97526343663534L153.408,126.229159116745L154.49599999999998,131.8397773106893L155.58399999999997,131.66813123226166L156.672,130.90572345256805L157.76,131.53227496147156L158.84799999999998,128.33423284689587L159.93599999999998,129.9202659527461L161.024,137.12897686163586L162.112,134.90905392169952L163.2,127.60761487483978L164.28799999999998,129.59562905629477L165.376,127.92019216219585L166.464,133.67665735880536L167.552,133.94207485516867L168.64,136.4365572532018L169.728,133.6382151444753L170.816,145.22417513529462L171.904,135.9495930671692L172.992,140.9592643181483L174.08,136.92394582430524L175.168,132.60839172204336L176.256,137.95378692944846L177.344,139.36032283306122L178.43200000000002,137.6899962425232L179.52,138.376722017924L180.608,133.70512652397156L181.696,133.51196058591208L182.78400000000002,133.07868111133575L183.872,146.22252333164215L184.96,132.8389035463333L186.048,136.79316449165344L187.136,140.31182952721915L188.224,141.15492351849875L189.31199999999998,141.7772842248281L190.39999999999998,140.8967736164729L191.488,142.4697391986847L192.576,143.64696570237479L193.664,135.9542789856593L194.75199999999998,136.58277559280396L195.84,130.68154203891754L196.928,137.0476187070211L198.016,142.65570827325186L199.10399999999998,137.7468815247218L200.192,137.81591482957205L201.28,139.33231341838837L202.368,132.80355580647787L203.456,141.44108283519745L204.544,146.24073652426404L205.632,136.69171877702078L206.72,134.93251887957257L207.808,135.93507556120557L208.89600000000002,138.34073770046234L209.984,138.3778713941574L211.072,141.61287037531537L212.16,142.80005224545798L213.24800000000002,147.06867643197378L214.336,144.87683363755545L215.424,142.77198978265127L216.512,146.8199160496394L217.60000000000002,140.77948419253033L218.68800000000002,139.12378120422363L219.776,144.30193332831067L220.864,141.17106783390045L221.952,143.55710216363272L223.04,142.65190649032593L224.128,137.41304961840314L225.21599999999998,140.13749567667645L226.304,142.28398231665295L227.392,146.71535817782086L228.48,135.71881600221L229.56799999999998,143.64413646856946L230.656,147.1930212577184L231.744,144.8336347738902L232.832,142.5488162835439L233.92,147.68242565790814L235.008,147.14483586947125L236.096,145.569659948349L237.184,137.00737285614014L238.272,138.54228524367016L239.36,137.47847565015158L240.448,142.696590701739L241.536,142.18747007846832L242.624,141.657466173172L243.71200000000002,141.83793592453003L244.8,138.37293791770935" style="fill: none;" fill="none"></path></g><g><path stroke="rgb(204, 51, 17)" stroke-width="2px" d="M32.64,-8.314524014790834L33.728,4.241650978724181L34.816,11.621035416921018L35.904,18.746390024820982L36.992000000000004,32.578266541163146L38.080000000000005,38.51254908243817L39.168,47.28518970807397L40.256,52.233095248540266L41.344,60.347585360209166L42.432,58.34098664919537L43.52,61.923503955205305L44.608000000000004,68.96108158429465L45.696000000000005,63.942869583765685L46.784,65.32413689295453L47.872,72.15383656819662L48.96,72.63576118151349L50.048,76.6117188135783L51.136,73.53754409154257L52.224000000000004,71.70119452476503L53.312000000000005,75.40307013193768L54.400000000000006,79.53237223625185L55.488,83.1687510808309L56.576,75.5107224782308L57.664,83.01795291900636L58.752,87.59505200386049L59.84,87.47753270467123L60.928000000000004,85.45632807413739L62.016000000000005,91.93690029780072L63.104000000000006,92.28425947825116L64.192,90.59220083554587L65.28,84.1809802055359L66.368,86.0577878157298L67.456,85.74703184763592L68.544,92.09441788991293L69.632,91.6745595932007L70.72,91.91529202461244L71.808,93.61718225479127L72.896,90.91519323984784L73.98400000000001,90.60199705759686L75.072,99.62307977676393L76.16000000000001,97.94704167048138L77.24799999999999,92.55586592356366L78.336,92.65651591618857L79.42399999999999,92.93912100791933L80.512,99.07594132423402L81.6,98.57983517646791L82.688,102.22898093859357L83.776,99.56851092974347L84.864,111.72189144293469L85.952,101.10464342435202L87.04,109.0641799370448L88.128,103.64971605936688L89.21600000000001,100.67537792523703L90.304,105.91679879029593L91.39200000000001,108.1097732782364L92.48,107.44092472394308L93.568,107.24176434675854L94.65599999999999,102.38328027725221L95.744,103.3232224782308L96.832,103.0086824099223L97.92,115.52263108889264L99.008,102.93791619936627L100.096,107.73608454068503L101.184,110.55792697270712L102.272,112.16440129280092L103.36,112.51740125815076L104.44800000000001,112.54245766003928L105.536,113.51817198594412L106.62400000000001,115.89128025372824L107.712,107.85418736934663L108.80000000000001,109.32910231749219L109.888,103.53898692131044L110.976,109.78446749846142L112.064,115.83425350983939L113.152,111.24963927268983L114.24,111.2819986343384L115.328,113.74062049388887L116.416,106.21795304616293L117.504,114.32402618726096L118.592,121.1548575560252L119.68,111.9736048380534L120.768,109.96389396985373L121.85600000000001,110.77330239613852L122.944,113.93776504198712L124.03200000000001,113.63811381657919L125.12,117.75753128528595L126.20800000000001,118.73402365048727L127.296,123.59206565221152L128.384,120.51753727595013L129.47199999999998,119.97517315546673L130.56,124.19221687316895L131.648,117.51907992362976L132.736,116.81711165110272L133.824,121.9257707198461L134.912,119.83963517347973L136,122.14049188296002L137.088,120.53815531730652L138.176,115.73811260859173L139.264,118.9229103724162L140.352,121.53250722090405L141.44,125.6882803440094L142.52800000000002,115.39443143208823L143.616,122.80251491069794L144.704,126.74243517716727L145.792,124.89013580481212L146.88,122.56823666890463L147.96800000000002,128.1150025924047L149.056,127.81688976287842L150.144,126.1816456715266L151.23200000000003,118.50144294897717L152.32000000000002,119.85936907927197L153.408,119.0216506322225L154.49599999999998,124.62974019845328L155.58399999999997,124.1441022157669L156.672,123.62071164449057L157.76,124.27695242563884L158.84799999999998,121.2981582482656L159.93599999999998,122.09220039844513L161.024,129.6036570072174L162.112,127.30778682231903L163.2,120.53414134184521L164.28799999999998,121.98329257965088L165.376,120.61613607406616L166.464,126.33911021550497L167.552,126.16804766654968L168.64,128.86085935433707L169.728,125.88210054238638L170.816,137.88988161087036L171.904,127.81602331002554L172.992,133.84512054920197L174.08,129.13322615623474L175.168,125.00151920318604L176.256,130.2051521142324L177.344,132.04003401597342L178.43200000000002,130.3241213957469L179.52,130.50420212745667L180.608,125.84242053826651L181.696,126.03652366002402L182.78400000000002,125.59733815987906L183.872,138.15639543533325L184.96,125.29809363683066L186.048,129.27544820308685L187.136,132.50434664885205L188.224,133.50808807214102L189.31199999999998,133.60086925824484L190.39999999999998,133.0944717725118L191.488,134.31084779898327L192.576,135.9301244020462L193.664,127.84074374039969L194.75199999999998,128.80888986587524L195.84,122.90031798680624L196.928,129.1815353234609L198.016,134.49508396784466L199.10399999999998,129.9459589322408L200.192,129.87471528848013L201.28,131.71819098790488L202.368,124.54205163319907L203.456,132.95635211467743L204.544,138.34390290578207L205.632,128.88034570217133L206.72,126.95570635795593L207.808,127.65564111868541L208.89600000000002,130.5541381041209L209.984,129.82614088058472L211.072,133.7275305191676L212.16,134.44044438997906L213.24800000000002,139.20098392168683L214.336,136.35827589035034L215.424,134.9970254103343L216.512,138.92566410700482L217.60000000000002,132.50669844945273L218.68800000000002,131.0039332310359L219.776,136.06468983491263L220.864,133.40459116299948L221.952,135.23885416984558L223.04,134.45457287629446L224.128,129.15518808364868L225.21599999999998,132.04072364171347L226.304,134.20071987311047L227.392,138.4383816321691L228.48,127.77146287759146L229.56799999999998,135.33138779799145L230.656,138.8935699860255L231.744,136.64394009113312L232.832,134.03245119253796L233.92,139.33984625339508L235.008,138.72864333788556L236.096,137.40305888652802L237.184,128.74629306793213L238.272,130.312521537145L239.36,129.19182666142783L240.448,134.37912074724835L241.536,133.67133486270905L242.624,133.3657599290212L243.71200000000002,133.62297264734906L244.8,130.3581075668335" style="fill: none;" fill="none"></path></g></g></g></g></g></g><g transform="translate(58, 178)" clip-path="url(#clip_1)"><clipPath id="clip_1"><rect width="271" height="21"></rect></clipPath><g><g><line x1="0" y1="0" x2="0" y2="5" style="visibility: inherit;" fill="rgb(0, 0, 0)" stroke="rgb(204, 204, 204)" stroke-width="1px"></line><line x1="27.200000000000003" y1="0" x2="27.200000000000003" y2="5" style="visibility: inherit;" fill="rgb(0, 0, 0)" stroke="rgb(204, 204, 204)" stroke-width="1px"></line><line x1="54.400000000000006" y1="0" x2="54.400000000000006" y2="5" style="visibility: inherit;" fill="rgb(0, 0, 0)" stroke="rgb(204, 204, 204)" stroke-width="1px"></line><line x1="81.6" y1="0" x2="81.6" y2="5" style="visibility: inherit;" fill="rgb(0, 0, 0)" stroke="rgb(204, 204, 204)" stroke-width="1px"></line><line x1="108.80000000000001" y1="0" x2="108.80000000000001" y2="5" style="visibility: inherit;" fill="rgb(0, 0, 0)" stroke="rgb(204, 204, 204)" stroke-width="1px"></line><line x1="136" y1="0" x2="136" y2="5" style="visibility: inherit;" fill="rgb(0, 0, 0)" stroke="rgb(204, 204, 204)" stroke-width="1px"></line><line x1="163.2" y1="0" x2="163.2" y2="5" style="visibility: inherit;" fill="rgb(0, 0, 0)" stroke="rgb(204, 204, 204)" stroke-width="1px"></line><line x1="190.39999999999998" y1="0" x2="190.39999999999998" y2="5" style="visibility: inherit;" fill="rgb(0, 0, 0)" stroke="rgb(204, 204, 204)" stroke-width="1px"></line><line x1="217.60000000000002" y1="0" x2="217.60000000000002" y2="5" style="visibility: inherit;" fill="rgb(0, 0, 0)" stroke="rgb(204, 204, 204)" stroke-width="1px"></line><line x1="244.8" y1="0" x2="244.8" y2="5" style="visibility: inherit;" fill="rgb(0, 0, 0)" stroke="rgb(204, 204, 204)" stroke-width="1px"></line><line x1="272" y1="0" x2="272" y2="5" style="visibility: inherit;" fill="rgb(0, 0, 0)" stroke="rgb(204, 204, 204)" stroke-width="1px"></line></g><g transform="translate(0, 8)"><text x="0" y="0" dx="0em" dy="0.95em" style="text-anchor: middle; visibility: hidden; font-family: &quot;Helvetica Neue&quot;, sans-serif; font-size: 12px; font-weight: 200;" fill="rgb(50, 49, 63)" stroke="none" stroke-width="1px">-5k</text><text x="27.200000000000003" y="0" dx="0em" dy="0.95em" style="text-anchor: middle; visibility: inherit; font-family: &quot;Helvetica Neue&quot;, sans-serif; font-size: 12px; font-weight: 200;" fill="rgb(50, 49, 63)" stroke="none" stroke-width="1px">0</text><text x="54.400000000000006" y="0" dx="0em" dy="0.95em" style="text-anchor: middle; visibility: hidden; font-family: &quot;Helvetica Neue&quot;, sans-serif; font-size: 12px; font-weight: 200;" fill="rgb(50, 49, 63)" stroke="none" stroke-width="1px">5k</text><text x="81.6" y="0" dx="0em" dy="0.95em" style="text-anchor: middle; visibility: inherit; font-family: &quot;Helvetica Neue&quot;, sans-serif; font-size: 12px; font-weight: 200;" fill="rgb(50, 49, 63)" stroke="none" stroke-width="1px">10k</text><text x="108.80000000000001" y="0" dx="0em" dy="0.95em" style="text-anchor: middle; visibility: hidden; font-family: &quot;Helvetica Neue&quot;, sans-serif; font-size: 12px; font-weight: 200;" fill="rgb(50, 49, 63)" stroke="none" stroke-width="1px">15k</text><text x="136" y="0" dx="0em" dy="0.95em" style="text-anchor: middle; visibility: inherit; font-family: &quot;Helvetica Neue&quot;, sans-serif; font-size: 12px; font-weight: 200;" fill="rgb(50, 49, 63)" stroke="none" stroke-width="1px">20k</text><text x="163.2" y="0" dx="0em" dy="0.95em" style="text-anchor: middle; visibility: hidden; font-family: &quot;Helvetica Neue&quot;, sans-serif; font-size: 12px; font-weight: 200;" fill="rgb(50, 49, 63)" stroke="none" stroke-width="1px">25k</text><text x="190.39999999999998" y="0" dx="0em" dy="0.95em" style="text-anchor: middle; visibility: inherit; font-family: &quot;Helvetica Neue&quot;, sans-serif; font-size: 12px; font-weight: 200;" fill="rgb(50, 49, 63)" stroke="none" stroke-width="1px">30k</text><text x="217.60000000000002" y="0" dx="0em" dy="0.95em" style="text-anchor: middle; visibility: hidden; font-family: &quot;Helvetica Neue&quot;, sans-serif; font-size: 12px; font-weight: 200;" fill="rgb(50, 49, 63)" stroke="none" stroke-width="1px">35k</text><text x="244.8" y="0" dx="0em" dy="0.95em" style="text-anchor: middle; visibility: inherit; font-family: &quot;Helvetica Neue&quot;, sans-serif; font-size: 12px; font-weight: 200;" fill="rgb(50, 49, 63)" stroke="none" stroke-width="1px">40k</text><text x="272" y="0" dx="0em" dy="0.95em" style="text-anchor: middle; visibility: hidden; font-family: &quot;Helvetica Neue&quot;, sans-serif; font-size: 12px; font-weight: 200;" fill="rgb(50, 49, 63)" stroke="none" stroke-width="1px">45k</text></g><line x1="0" y1="0" x2="272" y2="0" fill="rgb(0, 0, 0)" stroke="rgb(204, 204, 204)" stroke-width="1px"></line></g></g></g></g></svg>