<svg viewBox="0 0 330 200" xmlns="http://www.w3.org/2000/svg"><g><g><g><g><g><line x1="46" y1="178" x2="41" y2="178" style="visibility: inherit;" fill="rgb(0, 0, 0)" stroke="rgb(204, 204, 204)" stroke-width="1px"></line><line x1="46" y1="155.75000000000003" x2="41" y2="155.75000000000003" style="visibility: inherit;" fill="rgb(0, 0, 0)" stroke="rgb(204, 204, 204)" stroke-width="1px"></line><line x1="46" y1="133.5" x2="41" y2="133.5" style="visibility: inherit;" fill="rgb(0, 0, 0)" stroke="rgb(204, 204, 204)" stroke-width="1px"></line><line x1="46" y1="111.25000000000003" x2="41" y2="111.25000000000003" style="visibility: inherit;" fill="rgb(0, 0, 0)" stroke="rgb(204, 204, 204)" stroke-width="1px"></line><line x1="46" y1="89" x2="41" y2="89" style="visibility: inherit;" fill="rgb(0, 0, 0)" stroke="rgb(204, 204, 204)" stroke-width="1px"></line><line x1="46" y1="66.74999999999999" x2="41" y2="66.74999999999999" style="visibility: inherit;" fill="rgb(0, 0, 0)" stroke="rgb(204, 204, 204)" stroke-width="1px"></line><line x1="46" y1="44.5" x2="41" y2="44.5" style="visibility: inherit;" fill="rgb(0, 0, 0)" stroke="rgb(204, 204, 204)" stroke-width="1px"></line><line x1="46" y1="22.24999999999997" x2="41" y2="22.24999999999997" style="visibility: inherit;" fill="rgb(0, 0, 0)" stroke="rgb(204, 204, 204)" stroke-width="1px"></line><line x1="46" y1="0" x2="41" y2="0" style="visibility: inherit;" fill="rgb(0, 0, 0)" stroke="rgb(204, 204, 204)" stroke-width="1px"></line></g><g transform="translate(36, 0)"><text x="0" y="178" dx="0em" dy="0.3em" style="text-anchor: end; visibility: hidden; font-family: &quot;Helvetica Neue&quot;, sans-serif; font-size: 12px; font-weight: 200;" fill="rgb(50, 49, 63)" stroke="none" stroke-width="1px">1.1</text><text x="0" y="155.75000000000003" dx="0em" dy="0.3em" style="text-anchor: end; visibility: inherit; font-family: &quot;Helvetica Neue&quot;, sans-serif; font-size: 12px; font-weight: 200;" fill="rgb(50, 49, 63)" stroke="none" stroke-width="1px">1.2</text><text x="0" y="133.5" dx="0em" dy="0.3em" style="text-anchor: end; visibility: hidden; font-family: &quot;Helvetica Neue&quot;, sans-serif; font-size: 12px; font-weight: 200;" fill="rgb(50, 49, 63)" stroke="none" stroke-width="1px">1.3</text><text x="0" y="111.25000000000003" dx="0em" dy="0.3em" style="text-anchor: end; visibility: inherit; font-family: &quot;Helvetica Neue&quot;, sans-serif; font-size: 12px; font-weight: 200;" fill="rgb(50, 49, 63)" stroke="none" stroke-width="1px">1.4</text><text x="0" y="89" dx="0em" dy="0.3em" style="text-anchor: end; visibility: hidden; font-family: &quot;Helvetica Neue&quot;, sans-serif; font-size: 12px; font-weight: 200;" fill="rgb(50, 49, 63)" stroke="none" stroke-width="1px">1.5</text><text x="0" y="66.74999999999999" dx="0em" dy="0.3em" style="text-anchor: end; visibility: inherit; font-family: &quot;Helvetica Neue&quot;, sans-serif; font-size: 12px; font-weight: 200;" fill="rgb(50, 49, 63)" stroke="none" stroke-width="1px">1.6</text><text x="0" y="44.5" dx="0em" dy="0.3em" style="text-anchor: end; visibility: hidden; font-family: &quot;Helvetica Neue&quot;, sans-serif; font-size: 12px; font-weight: 200;" fill="rgb(50, 49, 63)" stroke="none" stroke-width="1px">1.7</text><text x="0" y="22.24999999999997" dx="0em" dy="0.3em" style="text-anchor: end; visibility: inherit; font-family: &quot;Helvetica Neue&quot;, sans-serif; font-size: 12px; font-weight: 200;" fill="rgb(50, 49, 63)" stroke="none" stroke-width="1px">1.8</text><text x="0" y="0" dx="0em" dy="0.3em" style="text-anchor: end; visibility: hidden; font-family: &quot;Helvetica Neue&quot;, sans-serif; font-size: 12px; font-weight: 200;" fill="rgb(50, 49, 63)" stroke="none" stroke-width="1px">1.9</text></g><line x1="46" y1="0" x2="46" y2="178" fill="rgb(0, 0, 0)" stroke="rgb(204, 204, 204)" stroke-width="1px"></line></g></g><g transform="translate(46, 0)" clip-path="url(#clip_0)"><clipPath id="clip_0"><rect width="283" height="177"></rect></clipPath><g><g><g><line x1="0" y1="0" x2="0" y2="178" fill="rgb(0, 0, 0)" stroke="rgb(60, 60, 60)" stroke-width="1px" opacity="0.25"></line><line x1="28.400000000000002" y1="0" x2="28.400000000000002" y2="178" fill="rgb(0, 0, 0)" stroke="rgb(60, 60, 60)" stroke-width="1px" opacity="0.25"></line><line x1="56.800000000000004" y1="0" x2="56.800000000000004" y2="178" fill="rgb(0, 0, 0)" stroke="rgb(60, 60, 60)" stroke-width="1px" opacity="0.25"></line><line x1="85.2" y1="0" x2="85.2" y2="178" fill="rgb(0, 0, 0)" stroke="rgb(60, 60, 60)" stroke-width="1px" opacity="0.25"></line><line x1="113.60000000000001" y1="0" x2="113.60000000000001" y2="178" fill="rgb(0, 0, 0)" stroke="rgb(60, 60, 60)" stroke-width="1px" opacity="0.25"></line><line x1="142" y1="0" x2="142" y2="178" fill="rgb(0, 0, 0)" stroke="rgb(60, 60, 60)" stroke-width="1px" opacity="0.25"></line><line x1="170.4" y1="0" x2="170.4" y2="178" fill="rgb(0, 0, 0)" stroke="rgb(60, 60, 60)" stroke-width="1px" opacity="0.25"></line><line x1="198.79999999999998" y1="0" x2="198.79999999999998" y2="178" fill="rgb(0, 0, 0)" stroke="rgb(60, 60, 60)" stroke-width="1px" opacity="0.25"></line><line x1="227.20000000000002" y1="0" x2="227.20000000000002" y2="178" fill="rgb(0, 0, 0)" stroke="rgb(60, 60, 60)" stroke-width="1px" opacity="0.25"></line><line x1="255.6" y1="0" x2="255.6" y2="178" fill="rgb(0, 0, 0)" stroke="rgb(60, 60, 60)" stroke-width="1px" opacity="0.25"></line><line x1="284" y1="0" x2="284" y2="178" fill="rgb(0, 0, 0)" stroke="rgb(60, 60, 60)" stroke-width="1px" opacity="0.25"></line></g><g><line x1="0" y1="178" x2="284" y2="178" fill="rgb(0, 0, 0)" stroke="rgb(60, 60, 60)" stroke-width="1px" opacity="0.25"></line><line x1="0" y1="155.75000000000003" x2="284" y2="155.75000000000003" fill="rgb(0, 0, 0)" stroke="rgb(60, 60, 60)" stroke-width="1px" opacity="0.25"></line><line x1="0" y1="133.5" x2="284" y2="133.5" fill="rgb(0, 0, 0)" stroke="rgb(60, 60, 60)" stroke-width="1px" opacity="0.25"></line><line x1="0" y1="111.25000000000003" x2="284" y2="111.25000000000003" fill="rgb(0, 0, 0)" stroke="rgb(60, 60, 60)" stroke-width="1px" opacity="0.25"></line><line x1="0" y1="89" x2="284" y2="89" fill="rgb(0, 0, 0)" stroke="rgb(60, 60, 60)" stroke-width="1px" opacity="0.25"></line><line x1="0" y1="66.74999999999999" x2="284" y2="66.74999999999999" fill="rgb(0, 0, 0)" stroke="rgb(60, 60, 60)" stroke-width="1px" opacity="0.25"></line><line x1="0" y1="44.5" x2="284" y2="44.5" fill="rgb(0, 0, 0)" stroke="rgb(60, 60, 60)" stroke-width="1px" opacity="0.25"></line><line x1="0" y1="22.24999999999997" x2="284" y2="22.24999999999997" fill="rgb(0, 0, 0)" stroke="rgb(60, 60, 60)" stroke-width="1px" opacity="0.25"></line><line x1="0" y1="0" x2="284" y2="0" fill="rgb(0, 0, 0)" stroke="rgb(60, 60, 60)" stroke-width="1px" opacity="0.25"></line></g></g></g><g><g><line x1="0" y1="422.7500000000001" x2="284" y2="422.7500000000001" fill="rgb(0, 0, 0)" stroke="rgb(153, 153, 153)" stroke-width="1.5px"></line></g></g><g><g><line x1="28.400000000000002" y1="0" x2="28.400000000000002" y2="178" fill="rgb(0, 0, 0)" stroke="rgb(153, 153, 153)" stroke-width="1.5px"></line></g></g><g><g><g><g><g><path stroke="rgb(255, 112, 67)" stroke-width="2px" d="M36.352000000000004,-15.703420853388138L37.488,0.03727194108446952L38.624,15.407647730216922L39.760000000000005,27.73154298150581L40.895999999999994,38.704172929029994L42.032,47.351919168007356L43.168,55.81902707643968L44.304,60.42788590598295L45.44,64.7688683000107L46.576,69.6963786969222L47.712,70.97857372138229L48.848,72.3723933778613L49.983999999999995,76.08300249407786L51.12,78.29279894564664L52.256,81.44323447839778L53.392,82.18693898784332L54.528,81.53961256142685L55.664,82.62783238945418L56.800000000000004,84.84297992134974L57.93599999999999,88.15680006577139L59.071999999999996,86.45884420795524L60.208,88.70909079409539L61.344,92.20523724923912L62.48,94.27055431945975L63.616,94.61982987711815L64.752,97.57576094781643L65.888,99.50921713236015L67.024,99.90114317421309L68.16,97.83385059906165L69.29599999999999,96.8946505549422L70.432,96.31426122800173L71.568,98.66893616010282L72.70400000000001,100.06467022425669L73.84,100.8660273200658L74.976,102.03340113533112L76.11200000000001,101.48819158273075L77.248,101.60380557657918L78.384,105.35755784267633L79.52000000000001,106.92352549422837L80.65599999999999,105.36987562282563L81.79199999999999,104.25374660072727L82.928,103.71188336119629L84.064,106.21072977489963L85.2,107.53105321948841L86.336,110.12239596502323L87.472,110.42983840260791L88.608,115.80142466041721L89.744,114.98397591002666L90.88,116.93850575857218L92.016,116.44200047834407L93.152,114.79085002531788L94.28800000000001,116.13857454174884L95.424,117.77957691022249L96.56,118.17154579918682L97.696,118.75351339317024L98.832,117.07555500111968L99.96799999999999,116.13338198329208L101.104,115.36649526396513L102.24,120.6683454348989L103.37599999999999,118.34715455975217L104.512,118.57271579626851L105.648,120.4119692070702L106.784,122.26242836853379L107.92,123.59561212385009L109.056,124.18369056894963L110.19200000000001,125.20003186532605L111.328,126.51988591473548L112.464,124.18220246864114L113.60000000000001,123.24358320851772L114.736,120.07982237708359L115.87199999999999,121.19453012688037L117.008,124.51473233546658L118.14399999999999,124.24695011047034L119.28,124.1980638031215L120.416,125.01741728329957L121.55199999999999,122.80323503699483L122.688,125.16698190144648L123.824,129.03188422067137L124.96,127.55472237314682L126.096,125.52269166973767L127.232,124.95717479150021L128.368,125.72632664060906L129.504,126.3954587555904L130.64000000000001,128.2134292946445L131.776,130.14109897769612L132.912,133.20240464304163L134.048,134.09201361235546L135.184,133.9184563964401L136.32,135.50195295869077L137.456,134.08014151608205L138.59199999999998,132.7798164436534L139.728,134.32663083966463L140.864,133.9147342258447L142,135.0110508569332L143.136,135.17484600354743L144.272,132.95869666939686L145.40800000000002,132.98791989449091L146.544,134.10913086392537L147.68,136.8045085219029L148.816,133.71366018935942L149.952,135.203464692145L151.08800000000002,137.92074967939226L152.22400000000002,138.7801190943633L153.36,138.2909136015841L154.496,140.43850628129653L155.632,141.4971088385106L156.768,141.43824163767823L157.90400000000002,138.24038255031786L159.04000000000002,136.72685935387537L160.176,135.62878006869272L161.31199999999998,137.42234772547314L162.44799999999998,138.444071543838L163.58399999999997,138.6009555415067L164.72,138.93284767602398L165.856,137.79912737449712L166.992,138.1544584240956L168.128,141.35108410158415L169.26399999999998,142.1985906054894L170.4,139.54526658596512L171.536,138.95025880182928L172.672,137.6414114656755L173.808,139.43070936338353L174.944,140.61697294793277L176.08,142.52652613211723L177.216,142.4859320157114L178.352,147.37983778913878L179.488,146.42742414355314L180.624,147.77914056229613L181.76,147.12641325621618L182.89600000000002,144.89969338791855L184.032,145.82606888900568L185.168,147.02338405305366L186.304,146.87819197091L187.44,147.16348523087817L188.57600000000002,145.35420459620664L189.71200000000002,144.08516393966977L190.848,143.14081897060578L191.984,148.50015536380116L193.12,145.8665002073783L194.25600000000003,145.83322252547373L195.392,147.46026254722855L196.528,148.84530730861056L197.664,150.01792170892733L198.79999999999998,150.2476007598077L199.93599999999998,151.11034276827783L201.072,152.1003285571612L202.208,149.46953458337052L203.344,148.02214013783973L204.48,144.64801730661895L205.61599999999999,145.53503738611522L206.75199999999998,148.49132634860032L207.888,148.00713773764227L209.024,147.79053123114736L210.16,148.21756212304967L211.296,145.88541367287002L212.432,148.2724139370594L213.568,151.61520629394494L214.704,149.61051705639628L215.84,147.58287929988543L216.976,146.9826310843029L218.112,147.39669844924202L219.24800000000002,147.758693703525L220.38400000000001,149.33420954258008L221.52,150.96054037875393L222.656,153.7024279622225L223.792,154.5377595298283L224.928,153.95063356594997L226.06400000000002,155.32987029574366L227.20000000000002,153.77020387185843L228.336,151.94598570068612L229.472,153.1935299074646L230.608,152.40735269999482L231.74399999999997,153.09551199326498L232.88,153.1858855250453L234.016,150.83375080603216L235.152,150.5846484910122L236.28799999999998,151.4599285132093L237.42399999999998,154.05417532959L238.56,150.6296309664155L239.696,152.1135437747422L240.832,154.55424439076083L241.968,154.99735025860963L243.10399999999998,154.32397535024938L244.24,156.21978859054366L245.376,156.957728600188L246.512,156.87092369537586L247.648,153.0453254088225L248.784,151.34189873364343L249.92,149.96336987869006L251.056,151.4203885034088L252.192,152.0813673994162L253.328,152.15026580460182L254.464,152.1837855527837L255.6,150.79829160869355" style="fill: none;" fill="none"></path></g><g><path stroke="rgb(238, 51, 119)" stroke-width="2px" d="M36.352000000000004,-13.953459180846608L37.488,0.9154134839962467L38.624,15.370981724106542L39.760000000000005,26.90668955539246L40.895999999999994,37.46272025250187L42.032,46.08839034097062L43.168,54.4216003740469L44.304,58.88865901212051L45.44,63.213765446316316L46.576,68.41228906181291L47.712,69.71942353345133L48.848,71.0345859114004L49.983999999999995,74.74778917581065L51.12,76.89778430017641L52.256,80.12513385248816L53.392,80.83724793526851L54.528,80.29022066563932L55.664,81.45049170940797L56.800000000000004,83.74659769230367L57.93599999999999,87.03373854896837L59.071999999999996,85.43046549700665L60.208,87.86291696043827L61.344,91.25419904619487L62.48,93.24877822285339L63.616,93.61017637209898L64.752,96.53429512858902L65.888,98.55826137599603L67.024,98.8410097092175L68.16,96.70418946227424L69.29599999999999,95.91455377885428L70.432,95.41783436079614L71.568,97.79359842193024L72.70400000000001,99.29817283996506L73.84,100.08561206474997L74.976,101.25271969301788L76.11200000000001,100.64798956641236L77.248,100.69930888134934L78.384,104.47237046377876L79.52000000000001,105.98576729204302L80.65599999999999,104.4004794400302L81.79199999999999,103.53317582850592L82.928,103.10396218444896L84.064,105.50026238054875L85.2,106.89192245061831L86.336,109.39956859146167L87.472,109.72696513768898L88.608,115.03843144678135L89.744,114.09795422615349L90.88,116.29787883318646L92.016,115.73915515635699L93.152,114.02835101064576L94.28800000000001,115.35686615810731L95.424,117.05083882633431L96.56,117.55489416017285L97.696,118.0420727914223L98.832,116.3686601511031L99.96799999999999,115.4836737985247L101.104,114.84875008313855L102.24,120.08862758188846L103.37599999999999,117.7335739166105L104.512,118.080169536505L105.648,119.81932946314447L106.784,121.60609343212865L107.92,122.90164360142958L109.056,123.54956808529624L110.19200000000001,124.57763766552404L111.328,125.94215042177078L112.464,123.55801333655862L113.60000000000001,122.64728609126774L114.736,119.56991266847828L115.87199999999999,120.55215303683985L117.008,123.86766207566686L118.14399999999999,123.68467824668187L119.28,123.6677327931553L120.416,124.50520043257652L121.55199999999999,122.18266630580294L122.688,124.42436468845764L123.824,128.3557560935388L124.96,126.87676003544149L126.096,125.00478903632532L127.232,124.54354105103715L128.368,125.29430278366033L129.504,125.89764454499024L130.64000000000001,127.84385785183392L131.776,129.6281324667995L132.912,132.61719360609445L134.048,133.47442621385807L135.184,133.37761944768283L136.32,135.07238365553292L137.456,133.50132079924623L138.59199999999998,132.1928525448172L139.728,133.74027681829503L140.864,133.36163597394213L142,134.56668742352235L143.136,134.65327861221738L144.272,132.45562111325327L145.40800000000002,132.4822318016724L146.544,133.6387224828742L147.68,136.29819878551612L148.816,133.17573049433975L149.952,134.63431951265304L151.08800000000002,137.27667601621613L152.22400000000002,138.0936240417747L153.36,137.58512990850141L154.496,139.74137135254105L155.632,140.88424732629517L156.768,140.8733235975746L157.90400000000002,137.6160645950224L159.04000000000002,136.21106505801595L160.176,135.01769302135895L161.31199999999998,136.80097957757823L162.44799999999998,137.87036798183746L163.58399999999997,137.9974129067935L164.72,138.33091270131337L165.856,137.13136939527072L166.992,137.30987563324857L168.128,140.52285212631756L169.26399999999998,141.3662811181291L170.4,138.8832883632984L171.536,138.31994653921166L172.672,137.05146656740212L173.808,138.7933699030191L174.944,139.98644193044368L176.08,141.79312453288472L177.216,141.7135869361081L178.352,146.6001683769893L179.488,145.66487645496557L180.624,147.1059182369091L181.76,146.37736992140879L182.89600000000002,144.0201212888972L184.032,144.9063423589478L185.168,146.13336628172453L186.304,146.06768382485902L187.44,146.31009786663174L188.57600000000002,144.50815990768507L189.71200000000002,143.28100866796152L190.848,142.43285001946438L191.984,147.6495460130748L193.12,145.02601605999337L194.25600000000003,144.98069225757044L195.392,146.54390224819613L196.528,147.91629245880384L197.664,149.02181534172976L198.79999999999998,149.32904877782994L199.93599999999998,150.13554796291072L201.072,151.15497899480272L202.208,148.46994011657003L203.344,147.11895874176366L204.48,143.7664624871847L205.61599999999999,144.51426341665015L206.75199999999998,147.5098803671135L207.888,147.09633163404067L209.024,146.78738801355124L210.16,147.28077271386957L211.296,144.84542938950642L212.432,147.14397805263388L213.568,150.49928816157455L214.704,148.4101135015361L215.84,146.56982207774357L216.976,145.96406626987002L218.112,146.37767245940887L219.24800000000002,146.6982362662108L220.38400000000001,148.23457024063774L221.52,149.78892718294927L222.656,152.55603069388667L223.792,153.33320051624656L224.928,152.79481319304875L226.06400000000002,154.27075972388135L227.20000000000002,152.59503642457693L228.336,150.7517389997123L229.472,152.03051818277112L230.608,151.28454523602528L231.74399999999997,152.0613972742522L232.88,152.03413963312886L234.016,149.74451336857663L235.152,149.53145199773903L236.28799999999998,150.3392887697112L237.42399999999998,152.90981162700007L238.56,149.48239579864116L239.696,150.8969917957054L240.832,153.2386511960069L241.968,153.67430889597176L243.10399999999998,153.0169416665473L244.24,154.86154513355723L245.376,155.61583419320962L246.512,155.55405292319045L247.648,151.78585427645916L248.784,150.19727774646327L249.92,148.72590460888412L251.056,150.17292293615262L252.192,150.89489083711575L253.328,150.92351589932605L254.464,151.01753646334748L255.6,149.5759119403407" style="fill: none;" fill="none"></path></g><g><path stroke="rgb(51, 187, 238)" stroke-width="2px" d="M37.488,-0.5999905698072041L38.624,13.350961055519747L39.760000000000005,24.27541289043836L40.895999999999994,34.403185161036305L42.032,42.69049275358978L43.168,51.057317737177L44.304,55.247034191999575L45.44,59.331922436435704L46.576,64.57790279782382L47.712,65.55083614572246L48.848,66.7271516391372L49.983999999999995,70.4256936562884L51.12,72.6351362185733L52.256,75.56903500032298L53.392,76.14806290452354L54.528,75.6124816081977L55.664,76.85386669804198L56.800000000000004,79.18723548139515L57.93599999999999,82.36712652882406L59.071999999999996,80.88793087269701L60.208,83.12378439081404L61.344,86.4784942635891L62.48,88.27975278197965L63.616,88.62326579537262L64.752,91.53405411310396L65.888,93.47345241787903L67.024,93.88327733786616L68.16,91.48106244315764L69.29599999999999,90.65986622386576L70.432,90.11019602085763L71.568,92.49084587185786L72.70400000000001,93.7702235684837L73.84,94.55822066806064L74.976,95.7172495871679L76.11200000000001,95.27542104401165L77.248,95.04866710941184L78.384,98.70618228761256L79.52000000000001,100.18893397255997L80.65599999999999,98.61048872701973L81.79199999999999,97.80998296396511L82.928,97.35288275989808L84.064,99.75807326864212L85.2,100.96703311105162L86.336,103.33520362556887L87.472,103.60486594308041L88.608,109.0084130970848L89.744,107.8765636091347L90.88,110.30161851673964L92.016,109.52383428829665L93.152,107.7720833183389L94.28800000000001,109.05753779179241L95.424,110.72974815229419L96.56,111.25190657532124L97.696,111.66222666594928L98.832,109.77391034897293L99.96799999999999,109.00316504559589L101.104,108.49542536688848L102.24,113.6960001847327L103.37599999999999,111.25882099039438L104.512,111.77788249234612L105.648,113.41712479341177L106.784,115.01810801355926L107.92,116.23267119126852L109.056,116.97296298144659L110.19200000000001,117.84724171518326L111.328,119.31500477528003L112.464,116.7841159041848L113.60000000000001,115.82198323822773L114.736,112.78853260288693L115.87199999999999,113.84152793175015L117.008,116.97776996663828L118.14399999999999,116.72229075176492L119.28,116.67567241038662L120.416,117.58122124580018L121.55199999999999,115.2934989589898L122.688,117.36082487454702L123.824,121.32936924189738L124.96,119.81871500903614L126.096,118.02871031340507L127.232,117.59072279200882L128.368,118.3242060617562L129.504,118.83021363472675L130.64000000000001,120.84307148966631L131.776,122.54507810421845L132.912,125.5306756886724L134.048,126.18087339358829L135.184,126.22152152036011L136.32,127.9563944242858L137.456,126.32993068113701L138.59199999999998,124.88795031198723L139.728,126.36351099663291L140.864,126.17786924274752L142,127.2412775530338L143.136,127.23259152018544L144.272,125.06007717277714L145.40800000000002,125.150800837434L146.544,126.3774396499137L147.68,129.03611011029125L148.816,126.03948713970686L149.952,127.55014668484036L151.08800000000002,130.0523469840259L152.22400000000002,130.68988440005606L153.36,130.19441779594797L154.496,132.34815259063947L155.632,133.47309026291794L156.768,133.44785993797083L157.90400000000002,130.06123698653278L159.04000000000002,128.64797421039046L160.176,127.4818444474989L161.31199999999998,129.23468791392168L162.44799999999998,130.10960578290653L163.58399999999997,130.30088374238034L164.72,130.71245482695593L165.856,129.6406314798146L166.992,129.62910733389555L168.128,132.7337947950822L169.26399999999998,133.65052563345802L170.4,131.12602161405306L171.536,130.62440063379896L172.672,129.41105319155866L173.808,131.18869906123646L174.944,132.2842402544985L176.08,134.0073868565184L177.216,133.8323715050472L178.352,138.8878423165949L179.488,137.78748689840268L180.624,139.33236786574142L181.76,138.47890558749447L182.89600000000002,136.19504176920663L184.032,136.97687565890556L185.168,138.26572880511048L186.304,138.28439915993548L187.44,138.48821914684024L188.57600000000002,136.52885992819813L189.71200000000002,135.35378548797814L190.848,134.51523989019896L191.984,139.69056514250104L193.12,137.02941753474988L194.25600000000003,137.20154472594334L195.392,138.76103475335168L196.528,140.0134791770156L197.664,141.0220913552389L198.79999999999998,141.3867702521769L199.93599999999998,142.02602648960877L201.072,143.0781034244736L202.208,140.3666487463498L203.344,139.07040373850964L204.48,135.67691691141783L205.61599999999999,136.4962891544191L206.75199999999998,139.351514542418L207.888,138.88137955922912L209.024,138.61722883855722L210.16,139.20593198105945L211.296,136.68590779283795L212.432,138.82629973399133L213.568,142.31906663601097L214.704,140.25767342582049L215.84,138.43687303265753L216.976,137.75211014390482L218.112,138.21773489737802L219.24800000000002,138.39925716176214L220.38400000000001,140.06765834006418L221.52,141.51543860145063L222.656,144.32196569745332L223.792,145.02061896505705L224.928,144.56708424677106L226.06400000000002,145.97467952602895L227.20000000000002,144.2439301588165L228.336,142.38495322334933L229.472,143.56696503322223L230.608,142.9930862960869L231.74399999999997,143.60107915268267L232.88,143.62018139759255L234.016,141.35097615480157L235.152,141.18661146497567L236.28799999999998,142.03617499551675L237.42399999999998,144.49911357332172L238.56,141.1802220187718L239.696,142.6773748065313L240.832,144.96742670925147L241.968,145.3368747305375L243.10399999999998,144.5464275879563L244.24,146.379328739816L245.376,147.20303877125622L246.512,147.1408853526738L247.648,143.26626105283657L248.784,141.74779688820217L249.92,140.32379598322495L251.056,141.62992922605864L252.192,142.23284235085126L253.328,142.36697129300282L254.464,142.54884486133483L255.6,141.25635242900032" style="fill: none;" fill="none"></path></g><g><path stroke="rgb(0, 119, 187)" stroke-width="2px" d="M37.488,-5.830573843000565L38.624,9.261553121039867L39.760000000000005,21.158125674675517L40.895999999999994,31.97658384509981L42.032,40.72038583477641L43.168,49.33232900775053L44.304,53.663262577007984L45.44,58.016124678095736L46.576,63.30902017323784L47.712,64.60429583009766L48.848,66.00745855815897L49.983999999999995,69.71270188739337L51.12,71.94831868624458L52.256,75.0974716352731L53.392,75.8274308681635L54.528,75.34497603877894L55.664,76.56286483578508L56.800000000000004,78.83360734387541L57.93599999999999,81.87677560880493L59.071999999999996,80.38076387494657L60.208,82.67539488709514L61.344,86.1056241719852L62.48,88.1456290778707L63.616,88.43741675296634L64.752,91.43829999058401L65.888,93.41290193503131L67.024,93.8549679269194L68.16,91.59238962514667L69.29599999999999,90.68376781112619L70.432,90.18730352551457L71.568,92.543263958087L72.70400000000001,93.91555815417752L73.84,94.72583178079668L74.976,95.90595042440503L76.11200000000001,95.38618011290576L77.248,95.2061107099415L78.384,98.94178831286547L79.52000000000001,100.484561560954L80.65599999999999,98.82722699536794L81.79199999999999,97.95590853624611L82.928,97.53199918229262L84.064,99.97597872712858L85.2,101.29669627845544L86.336,103.65634904683938L87.472,103.9462683342782L88.608,109.3328674640086L89.744,108.23931393657973L90.88,110.59139295598922L92.016,109.89496374238142L93.152,108.16977739398803L94.28800000000001,109.47640118637773L95.424,111.14314945721098L96.56,111.60377316584274L97.696,112.0977190071946L98.832,110.26127568093571L99.96799999999999,109.37277988915221L101.104,108.79403979971752L102.24,113.92000512716025L103.37599999999999,111.52873010895759L104.512,111.96223549522234L105.648,113.72285824106497L106.784,115.48183320216157L107.92,116.68113776595482L109.056,117.35090830654556L110.19200000000001,118.26837727266937L111.328,119.69778135322562L112.464,117.29527646841427L113.60000000000001,116.33856982315672L114.736,113.27864662602597L115.87199999999999,114.20382685539157L117.008,117.41455640242714L118.14399999999999,117.21348811296352L119.28,117.13260141079266L120.416,118.02631034293555L121.55199999999999,115.69484907292593L122.688,117.86774560155432L123.824,121.8594748994229L124.96,120.30595951202618L126.096,118.40529745175309L127.232,117.89743555399099L128.368,118.67361658103654L129.504,119.27605145744913L130.64000000000001,121.18491583807725L131.776,122.97706097211517L132.912,126.04979065564919L134.048,126.77139677707939L135.184,126.71894880595556L136.32,128.41381483353823L137.456,126.79077284978419L138.59199999999998,125.42832764057275L139.728,126.8743713382957L140.864,126.52757723832593L142,127.60242745700162L143.136,127.66798830880333L144.272,125.4787196687079L145.40800000000002,125.52008209056953L146.544,126.65443309204159L147.68,129.22079875502814L148.816,126.2596749689211L149.952,127.74172634041486L151.08800000000002,130.35512760970698L152.22400000000002,131.06185765083856L153.36,130.56279448876515L154.496,132.65397074347572L155.632,133.809773555552L156.768,133.74586581656635L157.90400000000002,130.43392083328547L159.04000000000002,128.97651372719753L160.176,127.77915486317247L161.31199999999998,129.48906031025274L162.44799999999998,130.44071497185723L163.58399999999997,130.68173776664554L164.72,131.09752289413345L165.856,129.9628514525827L166.992,129.96850204929925L168.128,133.09187596121564L169.26399999999998,134.00510311769924L170.4,131.39291963963197L171.536,130.68602906458665L172.672,129.53674794908218L173.808,131.33863793418317L174.944,132.53464235428282L176.08,134.33188062645976L177.216,134.19907103620756L178.352,139.13389805938476L179.488,138.08066320410774L180.624,139.61695866579657L181.76,138.7922110128096L182.89600000000002,136.42955884740894L184.032,137.32549215201226L185.168,138.47182190921123L186.304,138.43669040504818L187.44,138.71282958688573L188.57600000000002,136.85660469354534L189.71200000000002,135.65926589859333L190.848,134.753337468462L191.984,139.89854557857325L193.12,137.19312190738566L194.25600000000003,137.28130659894495L195.392,138.85712324044917L196.528,140.1675207284797L197.664,141.22311642573527L198.79999999999998,141.47538666013628L199.93599999999998,142.30753672172878L201.072,143.31634347468764L202.208,140.5921675016293L203.344,139.2296821385508L204.48,135.85808242022307L205.61599999999999,136.5904108325202L206.75199999999998,139.45704646346326L207.888,139.0524394717059L209.024,138.8395519856359L210.16,139.36813100598727L211.296,136.85957408203168L212.432,139.09283740671566L213.568,142.51012849421556L214.704,140.42760791546857L215.84,138.41669570306993L216.976,137.64407150089772L218.112,138.22168331229707L219.24800000000002,138.58432398369325L220.38400000000001,140.2020396121169L221.52,141.68649321364313L222.656,144.4246621225294L223.792,145.1189142998467L224.928,144.62447000362934L226.06400000000002,146.07978170405903L227.20000000000002,144.338618763036L228.336,142.57731497749478L229.472,143.76168904581542L230.608,143.11724134611413L231.74399999999997,143.76327135757998L232.88,143.75910767672295L234.016,141.4891943023076L235.152,141.30640019687834L236.28799999999998,142.12574509211078L237.42399999999998,144.53529669897378L238.56,141.22163397107494L239.696,142.66358171721677L240.832,145.06473786127796L241.968,145.48426558072705L243.10399999999998,144.74709073004328L244.24,146.52665385781052L245.376,147.3617226194043L246.512,147.18101047937267L247.648,143.36675727048035L248.784,141.74252712534977L249.92,140.30756306533286L251.056,141.70502405097648L252.192,142.32315991360286L253.328,142.46464008115734L254.464,142.6276362539709L255.6,141.22575260409002" style="fill: none;" fill="none"></path></g><g><path stroke="rgb(204, 51, 17)" stroke-width="2px" d="M37.488,-13.421439848435142L38.624,1.96250542563061L39.760000000000005,13.677092380971658L40.895999999999994,24.471038176273936L42.032,33.068460368040405L43.168,41.73152279013047L44.304,46.052970540150255L45.44,50.19494412184517L46.576,55.72565880188026L47.712,56.8708032538607L48.848,58.15563660795068L49.983999999999995,61.88259196246146L51.12,64.32721271101968L52.256,67.5147835108667L53.392,68.09673165091752L54.528,67.65112221479292L55.664,68.98595796461233L56.800000000000004,71.57405207697902L57.93599999999999,74.70078099357298L59.071999999999996,73.2623429154659L60.208,75.64847059482814L61.344,79.0611552858087L62.48,81.05790273366443L63.616,81.38115524775826L64.752,84.37995276193764L65.888,86.32956953621031L67.024,86.76699942278142L68.16,84.2546367328245L69.29599999999999,83.55952400926299L70.432,83.00794753069195L71.568,85.42420536362988L72.70400000000001,86.69224897955559L73.84,87.5572616823238L74.976,88.81285325197085L76.11200000000001,88.39676208182635L77.248,88.01155878821491L78.384,91.68484312192348L79.52000000000001,93.16341232014614L80.65599999999999,91.71719984255903L81.79199999999999,90.89303548358379L82.928,90.52085525525264L84.064,92.9536141320357L85.2,94.19854122188435L86.336,96.52487834566024L87.472,96.76921782656497L88.608,102.17590471366384L89.744,100.82468590890824L90.88,103.45891104791005L92.016,102.69601298960083L93.152,100.95096570010166L94.28800000000001,102.17246650311473L95.424,103.85449358614173L96.56,104.5742367791646L97.696,104.91987947747188L98.832,103.0244688995187L99.96799999999999,102.29403808161643L101.104,101.71964746978894L102.24,106.79115330140004L103.37599999999999,104.3872972188008L104.512,105.02165886507109L105.648,106.62359242883724L106.784,108.28005445747019L107.92,109.4267103001382L109.056,110.12554684429797L110.19200000000001,110.96715435474769L111.328,112.4992156093696L112.464,109.93992708119035L113.60000000000001,109.04271398778127L114.736,105.99837106940369L115.87199999999999,106.87486480758915L117.008,110.01916388920743L118.14399999999999,109.92148850114226L119.28,109.8768773660128L120.416,110.9142244210878L121.55199999999999,108.28076100057594L122.688,110.20906371895212L123.824,114.32248150720446L124.96,112.8168025697127L126.096,111.04357556610435L127.232,110.3299692398854L128.368,111.27140216389583L129.504,111.70656984066538L130.64000000000001,113.75059700617534L131.776,115.39964778786509L132.912,118.4916834805346L134.048,119.01622428738696L135.184,119.09620016958485L136.32,120.96935979215004L137.456,119.20506052784742L138.59199999999998,117.84267430670631L139.728,119.23629940252052L140.864,119.16958461225362L142,120.12538591635422L143.136,120.0053578353655L144.272,117.85584874968126L145.40800000000002,117.94454600823164L146.544,119.127222790791L147.68,121.63547888664803L148.816,118.6851744131351L149.952,120.1212633774343L151.08800000000002,122.68815962825197L152.22400000000002,123.4266021511196L153.36,122.86472381718391L154.496,124.92829011420868L155.632,126.0374062212733L156.768,125.99511829331087L157.90400000000002,122.64569642135245L159.04000000000002,121.22376357310262L160.176,120.00803047891411L161.31199999999998,121.70582920596573L162.44799999999998,122.51431051662907L163.58399999999997,122.77287316186039L164.72,123.2120410672594L165.856,122.18629179428628L166.992,121.91450926083695L168.128,125.00246279489028L169.26399999999998,125.86155849129574L170.4,123.4453320111669L171.536,122.62280542885284L172.672,121.53755876562015L173.808,123.36336606228957L174.944,124.38481646469006L176.08,126.16315420681698L177.216,125.94092805513424L178.352,131.004654379658L179.488,129.68284283397918L180.624,131.49920422028498L181.76,130.54967042321562L182.89600000000002,128.19170816251398L184.032,129.0291211575792L185.168,130.325710127981L186.304,130.3610002459476L187.44,130.4601232446068L188.57600000000002,128.50193249206743L189.71200000000002,127.41102506530882L190.848,126.56640914566873L191.984,131.4953015058491L193.12,128.88745268638456L194.25600000000003,129.04417655739502L195.392,130.53571091814828L196.528,131.86505331232541L197.664,132.70281618615624L198.79999999999998,132.98630024063965L199.93599999999998,133.6828509632849L201.072,134.80162151241922L202.208,131.97172822704687L203.344,130.6928194651054L204.48,127.36819342905562L205.61599999999999,128.0919755228417L206.75199999999998,130.82599808740957L207.888,130.49750891905032L209.024,130.26958384264114L210.16,130.93069394915466L211.296,128.2214660435269L212.432,130.23771551783975L213.568,133.77923836431557L214.704,131.8082419998745L215.84,129.79263994498848L216.976,128.88622599484802L218.112,129.5968705036776L219.24800000000002,129.7081725131593L220.38400000000001,131.46350764817728L221.52,132.82525789491376L222.656,135.70271878094698L223.792,136.19883933455486L224.928,135.90735909218037L226.06400000000002,137.4328121714261L227.20000000000002,135.56990020111007L228.336,133.80175106903792L229.472,134.93119781721163L230.608,134.45755160754044L231.74399999999997,134.96725042405797L232.88,134.93362531508848L234.016,132.61982930568368L235.152,132.4804320863933L236.28799999999998,133.33166101765934L237.42399999999998,135.67649516577904L238.56,132.46666961381067L239.696,133.81277256887694L240.832,136.16217225600207L241.968,136.59815600996572L243.10399999999998,135.7294708936534L244.24,137.50535011584296L245.376,138.30633721527298L246.512,138.2132139073422L247.648,134.4106032768852L248.784,132.80691778182782L249.92,131.35966617774844L251.056,132.7364183361046L252.192,133.25613787738757L253.328,133.43570999484228L254.464,133.6547800790129L255.6,132.3731577688967" style="fill: none;" fill="none"></path></g></g></g></g><g opacity="0.2"><g><g><g><path stroke="rgb(255, 112, 67)" stroke-width="2px" d="M34.08,-19.527755439281492L35.216,1.8304311633109762L36.352000000000004,15.33391320705411L37.488,22.987353146076174L38.624,38.075966477394076L39.760000000000005,46.031091153621674L40.895999999999994,55.0635969042778L42.032,60.27647787332535L43.168,68.49204236268997L44.304,67.33214491605759L45.44,71.27523922920227L46.576,77.08416903018951L47.712,72.90132367610931L48.848,74.46276897192001L49.983999999999995,81.64835089445114L51.12,81.60729163885117L52.256,86.16871500015259L53.392,83.30247128009796L54.528,80.56863570213318L55.664,84.26014924049377L56.800000000000004,88.16568547487259L57.93599999999999,93.12751615047455L59.071999999999996,83.91191476583481L60.208,92.084457218647L61.344,97.4494537115097L62.48,97.36852878332138L63.616,95.14374309778214L64.752,102.00965696573257L65.888,102.40940117835999L67.024,100.48903220891953L68.16,94.73291182518005L69.29599999999999,95.48585051298141L70.432,95.44367724657059L71.568,102.20094853639603L72.70400000000001,102.15827131271362L73.84,102.06806296110153L74.976,103.78446185588837L76.11200000000001,100.67037725448608L77.248,101.77722656726837L78.384,110.98818624019623L79.52000000000001,109.27247697114944L80.65599999999999,103.03940081596375L81.79199999999999,102.57955306768417L82.928,102.89908850193024L84.064,109.95899939537048L85.2,109.51153838634491L86.336,114.00941008329391L87.472,110.89100205898285L88.608,123.8588040471077L89.744,113.75780278444292L90.88,119.87030053138733L92.016,115.69724255800247L93.152,112.31412434577943L94.28800000000001,118.1601613163948L95.424,120.24108046293259L96.56,118.75949913263321L97.696,119.62646478414536L98.832,114.55861741304398L99.96799999999999,114.7201224565506L101.104,114.21616518497467L102.24,128.62112069129944L103.37599999999999,114.86536824703217L104.512,118.91105765104294L105.648,123.1708493232727L106.784,125.03811711072922L107.92,125.5953877568245L109.056,125.06580823659897L110.19200000000001,126.72454380989075L111.328,128.49966698884964L112.464,120.67567729949951L113.60000000000001,121.83565431833267L114.736,115.3341811299324L115.87199999999999,122.86659175157547L117.008,129.49503564834595L118.14399999999999,123.84527677297592L119.28,124.12473434209824L120.416,126.24644750356674L121.55199999999999,119.48196166753769L122.688,128.71260219812393L123.824,134.82923769950867L124.96,125.33897960186005L126.096,122.47464561462402L127.232,124.10889947414398L128.368,126.88005441427231L129.504,127.39915692806244L130.64000000000001,130.9403851032257L131.776,133.03260350227356L132.912,137.79436314105988L134.048,135.42642706632614L135.184,133.658120572567L136.32,137.8771978020668L137.456,131.94742435216904L138.59199999999998,130.82932883501053L139.728,136.6468524336815L140.864,133.29688930511475L142,136.65552580356598L143.136,135.42053872346878L144.272,129.63447266817093L145.40800000000002,133.03175473213196L146.544,135.7909473180771L147.68,140.84757500886917L148.816,129.07738769054413L149.952,137.4381714463234L151.08800000000002,141.99667716026306L152.22400000000002,140.06917321681976L153.36,137.5571053624153L154.496,143.65989530086517L155.632,143.08501267433167L156.768,141.3499408364296L157.90400000000002,133.4435939192772L159.04000000000002,134.45657455921173L160.176,133.98166114091873L161.31199999999998,140.11269921064377L162.44799999999998,139.9766572713852L163.58399999999997,138.83628153800964L164.72,139.4306858778L165.856,136.09854692220688L166.992,138.6874549984932L168.128,146.14602261781693L169.26399999999998,143.4698503613472L170.4,135.56528055667877L171.536,138.0577471256256L172.672,135.67814046144485L173.808,142.11465620994568L174.944,142.39636832475662L176.08,145.39085590839386L177.216,142.4250408411026L178.352,154.72069644927979L179.488,144.9988036751747L180.624,149.8067151904106L181.76,146.14732229709625L182.89600000000002,141.5596135854721L184.032,147.21563214063644L185.168,148.81935679912567L186.304,146.6604038476944L187.44,147.59142512083054L188.57600000000002,142.64028364419937L189.71200000000002,142.1816029548645L190.848,141.72430151700974L191.984,156.5391599535942L193.12,141.916017472744L194.25600000000003,145.78330600261688L195.392,149.9008225798607L196.528,150.9228744506836L197.664,151.77684330940247L198.79999999999998,150.59211933612823L199.93599999999998,152.40445578098297L201.072,153.58530724048615L202.208,145.52334362268448L203.344,145.85104846954346L204.48,139.58683305978775L205.61599999999999,146.86556750535965L206.75199999999998,152.92575979232788L207.888,147.28085482120514L209.024,147.46562147140503L210.16,148.85810846090317L211.296,142.38719099760056L212.432,151.8529143333435L213.568,156.62939482927322L214.704,146.60348320007324L215.84,144.54142266511917L216.976,146.0822587609291L218.112,148.0177994966507L219.24800000000002,148.3016865849495L220.38400000000001,151.69748330116272L221.52,153.40003663301468L222.656,157.81525933742523L223.792,155.79075688123703L224.928,153.06994462013245L226.06400000000002,157.39872539043427L227.20000000000002,151.43070423603058L228.336,149.20965844392776L229.472,155.0648462176323L230.608,151.22808688879013L231.74399999999997,154.12775093317032L232.88,153.32144582271576L234.016,147.30554872751236L235.152,150.2109950184822L236.28799999999998,152.77284854650497L237.42399999999998,157.94554555416107L238.56,145.49281442165375L239.696,154.3394129872322L240.832,158.21529531478882L241.968,155.66200906038284L243.10399999999998,153.31391298770905L244.24,159.06350845098495L245.376,158.06463861465454L246.512,156.74071633815765L247.648,147.30692797899246L248.784,148.7867587208748L249.92,147.89557659626007L251.056,153.6059164404869L252.192,153.07283574342728L253.328,152.25361341238022L254.464,152.23406517505646L255.6,148.7200506925583" style="fill: none;" fill="none"></path></g><g><path stroke="rgb(238, 51, 119)" stroke-width="2px" d="M34.08,-10.98748332262042L35.216,8.22076851129529L36.352000000000004,15.743391752243014L37.488,22.59437257051465L38.624,36.690137028694124L39.760000000000005,44.0358712673187L40.895999999999994,53.20102387666702L42.032,58.979954957962036L43.168,66.8942060470581L44.304,65.58049553632736L45.44,69.69634109735489L46.576,76.20640808343887L47.712,71.67957210540771L48.848,73.00699555873871L49.983999999999995,80.31702840328217L51.12,80.12258046865463L52.256,84.96598118543625L53.392,81.90539562702179L54.528,79.46969056129456L55.664,83.19088453054428L56.800000000000004,87.19074034690857L57.93599999999999,91.96443581581116L59.071999999999996,83.02556002140045L60.208,91.5115904211998L61.344,96.34111905097961L62.48,96.24064588546753L63.616,94.15227347612381L64.752,100.92047268152237L65.888,101.59421050548553L67.024,99.265132188797L68.16,93.49895918369293L69.29599999999999,94.730100274086L70.432,94.67275524139404L71.568,101.35724449157715L72.70400000000001,101.55503445863724L73.84,101.2667708992958L74.976,103.00338113307953L76.11200000000001,99.7408943772316L77.248,100.7762878537178L78.384,110.13196283578873L79.52000000000001,108.25586253404617L80.65599999999999,102.02254766225815L81.79199999999999,102.23222041130066L82.928,102.4601417183876L84.064,109.09471267461777L85.2,108.97941255569458L86.336,113.16103780269624L87.472,110.21805995702744L88.608,123.00563091039658L89.744,112.6872383952141L90.88,119.59776574373245L92.016,114.90106964111328L93.152,111.46214479207994L94.28800000000001,117.34963887929916L95.424,119.59179782867432L96.56,118.31097716093063L97.696,118.77284073829651L98.832,113.85854119062425L99.96799999999999,114.15619426965714L101.104,113.89636451005937L102.24,127.94844383001328L103.37599999999999,114.20099341869354L104.512,118.60006296634674L105.648,122.42806935310364L106.784,124.28623938560486L107.92,124.84496885538101L109.056,124.52145481109619L110.19200000000001,126.11974203586578L111.328,127.9889195561409L112.464,119.98180770874023L113.60000000000001,121.28119522333145L114.736,114.95385253429413L115.87199999999999,122.02551358938217L117.008,128.84092563390732L118.14399999999999,123.41020250320435L119.28,123.64231461286545L120.416,125.76140189170837L121.55199999999999,118.69886511564255L122.688,127.78691226243973L123.824,134.25284320116043L124.96,124.6582659482956L126.096,122.19683253765106L127.232,123.85166907310486L128.368,126.42044538259506L129.504,126.80265718698502L130.64000000000001,130.76317781209946L131.776,132.3045443892479L132.912,137.10078531503677L134.048,134.76027512550354L135.184,133.23240929841995L136.32,137.61452996730804L137.456,131.14472651481628L138.59199999999998,130.23015016317368L139.728,136.0614132285118L140.864,132.79367470741272L142,136.37426459789276L143.136,134.78316539525986L144.272,129.15913486480713L145.40800000000002,132.522147834301L146.544,135.37345850467682L147.68,140.28741323947906L148.816,128.49202805757523L149.952,136.822203040123L151.08800000000002,141.24021077156067L152.22400000000002,139.31904608011246L153.36,136.82238870859146L154.496,142.97573351860046L155.632,142.59856128692627L156.768,140.8569380044937L157.90400000000002,132.73017609119415L159.04000000000002,134.10356575250626L160.176,133.22763496637344L161.31199999999998,139.4759094119072L162.44799999999998,139.47445058822632L163.58399999999997,138.1879802942276L164.72,138.8311623930931L165.856,135.33205443620682L166.992,137.5776349902153L168.128,145.34231686592102L169.26399999999998,142.6314246058464L170.4,135.1587992310524L171.536,137.4749338030815L172.672,135.1487466096878L173.808,141.40622490644455L174.944,141.7760499715805L176.08,144.50314843654633L177.216,141.59428054094315L178.352,153.930040538311L179.488,144.26193857192993L180.624,149.26748090982437L181.76,145.28454744815826L182.89600000000002,140.48424834012985L184.032,146.2356739640236L185.168,147.97390216588974L186.304,145.9691601395607L187.44,146.67371892929077L188.57600000000002,141.80525296926498L189.71200000000002,141.4402818083763L190.848,141.1606120467186L191.984,155.47459000349045L193.12,141.0907211303711L194.25600000000003,144.912706553936L195.392,148.88871723413467L196.528,149.97487777471542L197.664,150.68009966611862L198.79999999999998,149.78989893198013L199.93599999999998,151.34529674053192L201.072,152.6841255426407L202.208,144.44238179922104L203.344,145.09248667955399L204.48,138.73771810531616L205.61599999999999,145.63596481084824L206.75199999999998,152.00330579280853L207.888,146.47600853443146L209.024,146.32397258281708L210.16,148.02084976434708L211.296,141.19241440296173L212.432,150.59180104732513L213.568,155.5322533249855L214.704,145.27635151147842L215.84,143.80938494205475L216.976,145.0554325580597L218.112,146.9980817437172L219.24800000000002,147.17908197641373L220.38400000000001,150.53907120227814L221.52,152.12046259641647L222.656,156.70668596029282L223.792,154.49895524978638L224.928,151.98723220825195L226.06400000000002,156.48467952013016L227.20000000000002,150.08145147562027L228.336,147.9867928624153L229.472,153.9486869573593L230.608,150.16558581590652L231.74399999999997,153.22667533159256L232.88,151.99325317144394L234.016,146.31007397174835L235.152,149.21185994148254L236.28799999999998,151.55104392766953L237.42399999999998,156.76559591293335L238.56,144.34127205610275L239.696,153.01888579130173L240.832,156.7511402964592L241.968,154.32779544591904L243.10399999999998,152.03089082241058L244.24,157.6284503340721L245.376,156.74726778268814L246.512,155.46138101816177L247.648,146.13355630636215L248.784,147.81441295146942L249.92,146.5188449025154L251.056,152.34345042705536L252.192,151.9778426885605L253.328,150.96645349264145L254.464,151.15856730937958L255.6,147.41347515583038" style="fill: none;" fill="none"></path></g><g><path stroke="rgb(51, 187, 238)" stroke-width="2px" d="M34.08,-5.370932579040556L35.216,6.35734671354291L36.352000000000004,13.252834916114779L37.488,20.12569808959958L38.624,33.925904870033236L39.760000000000005,40.49695068597791L40.895999999999994,49.502985417842865L42.032,55.07635498046875L43.168,63.580236077308655L44.304,61.52340078353882L45.44,65.45445317029953L46.576,72.44317346811295L47.712,67.0098244547844L48.848,68.491326212883L49.983999999999995,75.9729432463646L51.12,75.94909811019897L52.256,79.96972227096558L53.392,77.01658570766449L54.528,74.8091202378273L55.664,78.71592962741852L56.800000000000004,82.68727207183838L57.93599999999999,87.13694953918457L59.071999999999996,78.66914117336273L60.208,86.47756123542786L61.344,91.51055598258972L62.48,90.98163956403732L63.616,89.13853520154953L64.752,95.90023601055145L65.888,96.38254964351654L67.024,94.49801468849182L68.16,87.87774020433426L69.29599999999999,89.42807191610336L70.432,89.2856907248497L71.568,96.06182062625885L72.70400000000001,95.68929010629654L73.84,95.74021631479263L74.976,97.45579296350479L76.11200000000001,94.61267822980881L77.248,94.70853620767593L78.384,104.19245505332947L79.52000000000001,102.41306149959564L80.65599999999999,96.24282085895538L81.79199999999999,96.60922431945801L82.928,96.66723245382309L84.064,103.36585903167725L85.2,102.78047287464142L86.336,106.88745939731598L87.472,104.00935941934586L88.608,117.11373382806778L89.744,106.17878937721252L90.88,113.93920087814332L92.016,108.35715794563293L93.152,105.14445686340332L94.28800000000001,110.9857195019722L95.424,113.23806369304658L96.56,112.03514420986177L97.696,112.27770680189134L98.832,106.94143587350845L99.96799999999999,107.8470470905304L101.104,107.73381584882736L102.24,121.49686241149902L103.37599999999999,107.60305219888687L104.512,112.5564747452736L105.648,115.87598824501038L106.784,117.41958284378052L107.92,118.05451595783234L109.056,118.08340066671371L110.19200000000001,119.15865981578827L111.328,121.51664936542511L112.464,112.98778259754182L113.60000000000001,114.37878423929214L114.736,108.23835664987564L115.87199999999999,115.42102092504501L117.008,121.68213301897049L118.14399999999999,116.3390719294548L119.28,116.60574489831924L120.416,118.93954449892044L121.55199999999999,111.86191552877428L122.688,120.46181374788284L123.824,127.28218579292297L124.96,117.55273365974426L126.096,115.3437032699585L127.232,116.9337415099144L128.368,119.42443096637726L129.504,119.58922499418259L130.64000000000001,123.86235827207565L131.776,125.09808802604675L132.912,130.0090720653534L134.048,127.15616995096207L135.184,126.28249371051788L136.32,130.55870378017426L137.456,123.89023506641388L138.59199999999998,122.72497975826263L139.728,128.57685202360153L140.864,125.8994066119194L142,128.83639001846313L143.136,127.21956247091293L144.272,121.80130565166473L145.40800000000002,125.28688633441925L146.544,128.21739786863327L147.68,133.02411580085754L148.816,121.54455268383026L149.952,129.8161360025406L151.08800000000002,133.8056474328041L152.22400000000002,131.64619052410126L153.36,129.45121788978577L154.496,135.5787547826767L155.632,135.1604967713356L156.768,133.41001445055008L157.90400000000002,124.98130255937576L159.04000000000002,126.52808004617691L160.176,125.73264980316162L161.31199999999998,131.8639531135559L162.44799999999998,131.42198258638382L163.58399999999997,130.58780068159103L164.72,131.32981145381927L165.856,128.03289645910263L166.992,129.61182111501694L168.128,137.39082598686218L169.26399999999998,135.02562189102173L170.4,127.33926558494568L171.536,129.87196916341782L172.672,127.59103202819824L173.808,133.85516786575317L174.944,133.92755204439163L176.08,136.5921067595482L177.216,133.56984847784042L178.352,146.47104853391647L179.488,136.13695377111435L180.624,141.64968931674957L181.76,137.19871217012405L182.89600000000002,132.76924604177475L184.032,138.14962649345398L185.168,140.19900852441788L186.304,138.312404692173L187.44,138.79394912719727L188.57600000000002,133.58982110023499L189.71200000000002,133.59117382764816L190.848,133.25742149353027L191.984,147.45355302095413L193.12,133.03769612312317L194.25600000000003,137.45973551273346L195.392,141.1002697944641L196.528,141.89214581251144L197.664,142.53500962257385L198.79999999999998,141.93378859758377L199.93599999999998,142.98491084575653L201.072,144.65621882677078L202.208,136.29946672916412L203.344,137.12603622674942L204.48,130.58668667078018L205.61599999999999,137.7253475189209L206.75199999999998,143.63435262441635L207.888,138.17617708444595L209.024,138.2210027575493L210.16,140.08898669481277L211.296,132.90587151050568L212.432,142.03688764572144L213.568,147.55821698904037L214.704,137.16558361053467L215.84,135.70567244291306L216.976,136.72496581077576L218.112,138.9161720275879L219.24800000000002,138.67154055833817L220.38400000000001,142.57026010751724L221.52,143.68710899353027L222.656,148.53175634145737L223.792,146.0685988664627L224.928,143.88678216934204L226.06400000000002,148.08607244491577L227.20000000000002,141.6478061079979L228.336,139.59648782014847L229.472,145.33998274803162L230.608,142.1322681903839L231.74399999999997,144.5130684375763L232.88,143.64883476495743L234.016,137.94716829061508L235.152,140.94006443023682L236.28799999999998,143.31052029132843L237.42399999999998,148.19352144002914L238.56,136.20188468694687L239.696,144.92310398817062L240.832,148.4025045633316L241.968,145.89104676246643L243.10399999999998,143.36075687408447L244.24,149.1286804676056L245.376,148.4386038184166L246.512,147.0476552248001L247.648,137.45432460308075L248.784,139.4701006412506L249.92,138.18779462575912L251.056,143.58912909030914L252.192,143.13721203804016L253.328,142.56816470623016L254.464,142.82165521383286L255.6,139.3176137804985" style="fill: none;" fill="none"></path></g><g><path stroke="rgb(0, 119, 187)" stroke-width="2px" d="M34.08,-17.464342176914244L35.216,1.5819802284240438L36.352000000000004,9.712641179561587L37.488,16.720724046230288L38.624,31.51950889825818L39.760000000000005,38.8231494426727L40.895999999999994,48.10614848136902L42.032,53.78850543498993L43.168,62.22212427854538L44.304,60.15117818117142L45.44,64.54030120372772L46.576,71.24463045597076L47.712,66.54666119813919L48.848,68.11184638738632L49.983999999999995,75.27000242471695L51.12,75.30153954029083L52.256,79.82102835178375L53.392,76.92234569787979L54.528,74.62130331993103L55.664,78.38968360424042L56.800000000000004,82.2397049665451L57.93599999999999,86.44151502847672L59.071999999999996,78.13675010204315L60.208,86.11733788251877L61.344,91.25096493959427L62.48,91.20563530921936L63.616,88.87509816884995L64.752,95.93962424993515L65.888,96.37480461597443L67.024,94.51806688308716L68.16,88.1985222697258L69.29599999999999,89.32083511352539L70.432,89.44260710477829L71.568,96.07720458507538L72.70400000000001,95.97399944067001L73.84,95.94124221801758L74.976,97.67612838745117L76.11200000000001,94.6065246462822L77.248,94.93600660562515L78.384,104.54530471563339L79.52000000000001,102.79872143268585L80.65599999999999,96.34122514724731L81.79199999999999,96.6489308476448L82.928,96.89613515138626L84.064,103.64194804430008L85.2,103.27777260541916L86.336,107.1958281993866L87.472,104.38114726543427L88.608,117.41276615858078L89.744,106.59898364543915L90.88,114.11951148509979L92.016,108.85031992197037L93.152,105.58199787139893L94.28800000000001,111.43633687496187L95.424,113.64327186346055L96.56,112.2947087287903L97.696,112.83863776922227L98.832,107.5066106915474L99.96799999999999,108.04003620147705L101.104,107.92592966556549L102.24,121.60895311832428L103.37599999999999,107.9418175816536L104.512,112.61249357461931L105.648,116.36379235982895L106.784,118.12029564380646L107.92,118.48009461164474L109.056,118.35556411743164L110.19200000000001,119.64458072185516L111.328,121.84188747406006L112.464,113.69151914119722L113.60000000000001,114.90350985527039L114.736,108.6887618303299L115.87199999999999,115.59159719944L117.008,122.2306507229805L118.14399999999999,116.91188567876816L119.28,117.01127135753632L120.416,119.3668737411499L121.55199999999999,112.19765716791154L122.688,121.12709039449692L123.824,127.84706884622574L124.96,117.97568643093109L126.096,115.55430436134338L127.232,117.13564270734787L128.368,119.83788812160492L129.504,120.17970377206802L130.64000000000001,124.04821240901947L131.776,125.665278673172L132.912,130.65888518095016L134.048,127.8538059592247L135.184,126.64027684926987L136.32,130.95611387491226L137.456,124.35620987415314L138.59199999999998,123.38465982675552L139.728,129.04343688488007L140.864,126.00738608837128L142,129.2147027850151L143.136,127.76632958650589L144.272,122.19481670856476L145.40800000000002,125.58212572336197L146.544,128.35595959424973L147.68,133.0703472495079L148.816,121.81798928976059L149.952,129.9648033976555L151.08800000000002,134.27522951364517L152.22400000000002,132.12195271253586L153.36,129.81419974565506L154.496,135.7907351255417L155.632,135.54347777366638L156.768,133.65000420808792L157.90400000000002,125.4660033583641L159.04000000000002,126.79040306806564L160.176,125.98311656713486L161.31199999999998,132.0539184808731L162.44799999999998,131.86819696426392L163.58399999999997,131.04327195882797L164.72,131.7212005853653L165.856,128.2608442902565L166.992,129.97697794437408L168.128,137.77693682909012L169.26399999999998,135.37494385242462L170.4,127.47464442253113L171.536,129.62569320201874L172.672,127.8128262758255L173.808,134.04147291183472L174.944,134.32864898443222L176.08,137.0277380347252L177.216,133.99985665082932L178.352,146.53613859415054L179.488,136.50081092119217L180.624,141.92140185832977L181.76,137.555089533329L182.89600000000002,132.885580599308L184.032,138.66939210891724L185.168,140.1913165450096L186.304,138.3839931488037L187.44,139.12703835964203L188.57600000000002,134.0722673535347L189.71200000000002,133.8632577061653L190.848,133.39444482326508L191.984,147.61635774374008L193.12,133.13498640060425L194.25600000000003,137.41358363628387L195.392,141.22084820270538L196.528,142.1331169605255L197.664,142.80650997161865L198.79999999999998,141.85379201173782L199.93599999999998,143.55576181411743L201.072,144.82955360412598L202.208,136.50590354204178L203.344,137.1859540939331L204.48,130.80068284273148L205.61599999999999,137.68890345096588L206.75199999999998,143.75699990987778L207.888,138.44552898406982L209.024,138.52022075653076L210.16,140.16099953651428L211.296,133.09673869609833L212.432,142.4427323937416L213.568,147.6360651254654L214.704,137.30382704734802L215.84,135.4003273844719L216.976,136.48513519763947L218.112,139.08810102939606L219.24800000000002,139.1282849907875L220.38400000000001,142.62861305475235L221.52,143.91317361593246L222.656,148.53191548585892L223.792,146.1602925658226L224.928,143.88280355930328L226.06400000000002,148.26274925470352L227.20000000000002,141.72687435150146L228.336,139.9353592991829L229.472,145.53825014829636L230.608,142.1505697965622L231.74399999999997,144.73231637477875L232.88,143.75286215543747L234.016,138.0843242406845L235.152,141.03220903873444L236.28799999999998,143.3547624349594L237.42399999999998,148.1496241092682L238.56,136.25113987922668L239.696,144.8265033364296L240.832,148.6664720773697L241.968,146.11355715990067L243.10399999999998,143.64132845401764L244.24,149.19599854946136L245.376,148.61432576179504L246.512,146.90994226932526L247.648,137.64537745714188L248.784,139.3061819076538L249.92,138.15511697530746L251.056,143.80121552944183L252.192,143.25036370754242L253.328,142.676860332489L254.464,142.87213051319122L255.6,139.12292712926865" style="fill: none;" fill="none"></path></g><g><path stroke="rgb(204, 51, 17)" stroke-width="2px" d="M35.216,-6.009950399398832L36.352000000000004,1.9746690392493917L37.488,9.684472620487185L38.624,24.650836527347536L39.760000000000005,31.071888744831057L40.895999999999994,40.56405657529828L42.032,45.91780686378479L43.168,54.69783002138138L44.304,52.52667599916458L45.44,56.40303575992584L46.576,64.01783013343811L47.712,58.588035345077515L48.848,60.082560420036316L49.983999999999995,67.4724572300911L51.12,67.99392038583755L52.256,72.29596489667892L53.392,68.9696347117424L54.528,66.982716858387L55.664,70.98819577693939L56.800000000000004,75.45617485046387L57.93599999999999,79.39086103439331L59.071999999999996,71.1046894788742L60.208,79.22765845060349L61.344,84.18017917871475L62.48,84.05302280187607L63.616,81.86603391170502L64.752,88.87814843654633L65.888,89.25399446487427L67.024,87.42314422130585L68.16,80.48609280586243L69.29599999999999,82.51685494184494L70.432,82.18058282136917L71.568,89.04859209060669L72.70400000000001,88.59431439638138L73.84,88.85478073358536L74.976,90.6962406039238L76.11200000000001,87.77262532711029L77.248,87.43375384807587L78.384,97.19476962089539L79.52000000000001,95.38126611709595L80.65599999999999,89.54788112640381L81.79199999999999,89.65678894519806L82.928,89.96258491277695L84.064,96.6027524471283L85.2,96.06593185663223L86.336,100.01438403129578L87.472,97.13572704792023L88.608,110.28593504428864L89.744,98.79785770177841L90.88,107.41024875640869L92.016,101.55166590213776L93.152,98.33339476585388L94.28800000000001,104.00471770763397L95.424,106.37753421068192L96.56,105.65385156869888L97.696,105.43834352493286L98.832,100.18135303258896L99.96799999999999,101.19839185476303L101.104,100.85806155204773L102.24,114.39841204881668L103.37599999999999,100.78151309490204L104.512,105.97320133447647L105.648,109.02649277448654L106.784,110.76474750041962L107.92,111.14669406414032L109.056,111.17380166053772L110.19200000000001,112.22956562042238L111.328,114.79730749130249L112.464,106.10099428892136L113.60000000000001,107.6968943476677L114.736,101.43185669183731L115.87199999999999,108.1896054148674L117.008,114.73561251163483L118.14399999999999,109.7749754190445L119.28,109.80996066331863L120.416,112.47024500370027L121.55199999999999,104.3305658698082L122.688,113.10151779651643L123.824,120.49260818958282L124.96,110.55828416347504L126.096,108.38373506069183L127.232,109.25955975055695L128.368,112.68355154991151L129.504,112.35932135581972L130.64000000000001,116.81663775444031L131.776,117.87322396039963L132.912,123.12973701953888L134.048,119.8030354976654L135.184,119.21616399288177L136.32,123.77909922599792L137.456,116.55861163139343L138.59199999999998,115.79909497499466L139.728,121.32673704624176L140.864,119.06951242685318L142,121.55908787250519L143.136,119.82531571388245L144.272,114.63158512115479L145.40800000000002,118.07759189605713L146.544,120.90123796463013L147.68,125.39786303043365L148.816,114.2597177028656L149.952,122.27539682388306L151.08800000000002,126.53850400447845L152.22400000000002,124.53426593542099L153.36,122.02190631628036L154.496,128.0236395597458L155.632,127.70108038187027L156.768,125.93168640136719L157.90400000000002,117.62156361341476L159.04000000000002,119.09086430072784L160.176,118.18443083763123L161.31199999999998,124.25252729654312L162.44799999999998,123.72703248262405L163.58399999999997,123.16071712970734L164.72,123.87079292535782L165.856,120.64766788482666L166.992,121.50683546066284L168.128,129.63439309597015L169.26399999999998,127.15020203590393L170.4,119.82099229097366L171.536,121.38901555538177L172.672,119.90968877077103L173.808,126.1020770072937L174.944,125.91699206829071L176.08,128.83066082000732L177.216,125.60758882761002L178.352,138.60024386644363L179.488,127.70012551546097L180.624,134.22374629974365L181.76,129.12536972761154L182.89600000000002,124.65476477146149L184.032,130.285240650177L185.168,132.27059358358383L186.304,130.41393542289734L187.44,130.60880774259567L188.57600000000002,125.56464636325836L189.71200000000002,125.7746639251709L190.848,125.29948526620865L191.984,138.8886400461197L193.12,124.97567945718765L194.25600000000003,129.27926236391068L195.392,132.7730124592781L196.528,133.85906690359116L197.664,133.95946049690247L198.79999999999998,133.4115263223648L199.93599999999998,134.72767704725266L201.072,136.4797773361206L202.208,127.72688829898834L203.344,128.77445632219315L204.48,122.38125437498093L205.61599999999999,129.1776486635208L206.75199999999998,134.92703193426132L207.888,130.00477516651154L209.024,129.92769622802734L210.16,131.92235910892487L211.296,124.1576241850853L212.432,133.26208972930908L213.568,139.0915226340294L214.704,128.85174745321274L215.84,126.76923686265945L216.976,127.5266050696373L218.112,130.662837266922L219.24800000000002,129.8751255273819L220.38400000000001,134.0965103507042L221.52,134.86788326501846L222.656,140.0189101099968L223.792,136.94302016496658L224.928,135.47013872861862L226.06400000000002,139.72099179029465L227.20000000000002,132.775532245636L228.336,131.14952737092972L229.472,136.6253679394722L230.608,133.7470822930336L231.74399999999997,135.73179864883423L232.88,134.88318765163422L234.016,129.14913529157639L235.152,132.27133625745773L236.28799999999998,134.6085044145584L237.42399999999998,139.19374638795853L238.56,127.65193128585815L239.696,135.8319270014763L240.832,139.68627178668976L241.968,137.2521316409111L243.10399999999998,134.42644321918488L244.24,140.1691689491272L245.376,139.50781786441803L246.512,138.07352894544601L247.648,128.70668733119965L248.784,130.4013895392418L249.92,129.18878877162933L251.056,134.80154657363892L252.192,134.03571718931198L253.328,133.70506817102432L254.464,133.98338520526886L255.6,130.45072430372238" style="fill: none;" fill="none"></path></g></g></g></g></g></g><g transform="translate(46, 178)" clip-path="url(#clip_1)"><clipPath id="clip_1"><rect width="283" height="21"></rect></clipPath><g><g><line x1="0" y1="0" x2="0" y2="5" style="visibility: inherit;" fill="rgb(0, 0, 0)" stroke="rgb(204, 204, 204)" stroke-width="1px"></line><line x1="28.400000000000002" y1="0" x2="28.400000000000002" y2="5" style="visibility: inherit;" fill="rgb(0, 0, 0)" stroke="rgb(204, 204, 204)" stroke-width="1px"></line><line x1="56.800000000000004" y1="0" x2="56.800000000000004" y2="5" style="visibility: inherit;" fill="rgb(0, 0, 0)" stroke="rgb(204, 204, 204)" stroke-width="1px"></line><line x1="85.2" y1="0" x2="85.2" y2="5" style="visibility: inherit;" fill="rgb(0, 0, 0)" stroke="rgb(204, 204, 204)" stroke-width="1px"></line><line x1="113.60000000000001" y1="0" x2="113.60000000000001" y2="5" style="visibility: inherit;" fill="rgb(0, 0, 0)" stroke="rgb(204, 204, 204)" stroke-width="1px"></line><line x1="142" y1="0" x2="142" y2="5" style="visibility: inherit;" fill="rgb(0, 0, 0)" stroke="rgb(204, 204, 204)" stroke-width="1px"></line><line x1="170.4" y1="0" x2="170.4" y2="5" style="visibility: inherit;" fill="rgb(0, 0, 0)" stroke="rgb(204, 204, 204)" stroke-width="1px"></line><line x1="198.79999999999998" y1="0" x2="198.79999999999998" y2="5" style="visibility: inherit;" fill="rgb(0, 0, 0)" stroke="rgb(204, 204, 204)" stroke-width="1px"></line><line x1="227.20000000000002" y1="0" x2="227.20000000000002" y2="5" style="visibility: inherit;" fill="rgb(0, 0, 0)" stroke="rgb(204, 204, 204)" stroke-width="1px"></line><line x1="255.6" y1="0" x2="255.6" y2="5" style="visibility: inherit;" fill="rgb(0, 0, 0)" stroke="rgb(204, 204, 204)" stroke-width="1px"></line><line x1="284" y1="0" x2="284" y2="5" style="visibility: inherit;" fill="rgb(0, 0, 0)" stroke="rgb(204, 204, 204)" stroke-width="1px"></line></g><g transform="translate(0, 8)"><text x="0" y="0" dx="0em" dy="0.95em" style="text-anchor: middle; visibility: hidden; font-family: &quot;Helvetica Neue&quot;, sans-serif; font-size: 12px; font-weight: 200;" fill="rgb(50, 49, 63)" stroke="none" stroke-width="1px">-5k</text><text x="28.400000000000002" y="0" dx="0em" dy="0.95em" style="text-anchor: middle; visibility: inherit; font-family: &quot;Helvetica Neue&quot;, sans-serif; font-size: 12px; font-weight: 200;" fill="rgb(50, 49, 63)" stroke="none" stroke-width="1px">0</text><text x="56.800000000000004" y="0" dx="0em" dy="0.95em" style="text-anchor: middle; visibility: inherit; font-family: &quot;Helvetica Neue&quot;, sans-serif; font-size: 12px; font-weight: 200;" fill="rgb(50, 49, 63)" stroke="none" stroke-width="1px">5k</text><text x="85.2" y="0" dx="0em" dy="0.95em" style="text-anchor: middle; visibility: inherit; font-family: &quot;Helvetica Neue&quot;, sans-serif; font-size: 12px; font-weight: 200;" fill="rgb(50, 49, 63)" stroke="none" stroke-width="1px">10k</text><text x="113.60000000000001" y="0" dx="0em" dy="0.95em" style="text-anchor: middle; visibility: inherit; font-family: &quot;Helvetica Neue&quot;, sans-serif; font-size: 12px; font-weight: 200;" fill="rgb(50, 49, 63)" stroke="none" stroke-width="1px">15k</text><text x="142" y="0" dx="0em" dy="0.95em" style="text-anchor: middle; visibility: inherit; font-family: &quot;Helvetica Neue&quot;, sans-serif; font-size: 12px; font-weight: 200;" fill="rgb(50, 49, 63)" stroke="none" stroke-width="1px">20k</text><text x="170.4" y="0" dx="0em" dy="0.95em" style="text-anchor: middle; visibility: inherit; font-family: &quot;Helvetica Neue&quot;, sans-serif; font-size: 12px; font-weight: 200;" fill="rgb(50, 49, 63)" stroke="none" stroke-width="1px">25k</text><text x="198.79999999999998" y="0" dx="0em" dy="0.95em" style="text-anchor: middle; visibility: inherit; font-family: &quot;Helvetica Neue&quot;, sans-serif; font-size: 12px; font-weight: 200;" fill="rgb(50, 49, 63)" stroke="none" stroke-width="1px">30k</text><text x="227.20000000000002" y="0" dx="0em" dy="0.95em" style="text-anchor: middle; visibility: inherit; font-family: &quot;Helvetica Neue&quot;, sans-serif; font-size: 12px; font-weight: 200;" fill="rgb(50, 49, 63)" stroke="none" stroke-width="1px">35k</text><text x="255.6" y="0" dx="0em" dy="0.95em" style="text-anchor: middle; visibility: inherit; font-family: &quot;Helvetica Neue&quot;, sans-serif; font-size: 12px; font-weight: 200;" fill="rgb(50, 49, 63)" stroke="none" stroke-width="1px">40k</text><text x="284" y="0" dx="0em" dy="0.95em" style="text-anchor: middle; visibility: hidden; font-family: &quot;Helvetica Neue&quot;, sans-serif; font-size: 12px; font-weight: 200;" fill="rgb(50, 49, 63)" stroke="none" stroke-width="1px">45k</text></g><line x1="0" y1="0" x2="284" y2="0" fill="rgb(0, 0, 0)" stroke="rgb(204, 204, 204)" stroke-width="1px"></line></g></g></g></g></svg>